<?xml version="1.0" encoding="UTF-8" standalone="no"?>
<!-- Created with Inkscape (http://www.inkscape.org/) -->

<svg
   xmlns:osb="http://www.openswatchbook.org/uri/2009/osb"
   xmlns:dc="http://purl.org/dc/elements/1.1/"
   xmlns:cc="http://creativecommons.org/ns#"
   xmlns:rdf="http://www.w3.org/1999/02/22-rdf-syntax-ns#"
   xmlns:svg="http://www.w3.org/2000/svg"
   xmlns="http://www.w3.org/2000/svg"
   xmlns:sodipodi="http://sodipodi.sourceforge.net/DTD/sodipodi-0.dtd"
   xmlns:inkscape="http://www.inkscape.org/namespaces/inkscape"
   width="1844.9606"
   height="5386.0107"
   id="svg2"
   version="1.1"
   inkscape:version="0.48.2 r9819"
   sodipodi:docname="logo.pdf">
  <defs
     id="defs4">
    <inkscape:path-effect
       is_visible="true"
       id="path-effect3927"
       effect="spiro" />
    <inkscape:path-effect
       effect="spiro"
       id="path-effect3909"
       is_visible="true" />
    <inkscape:path-effect
       is_visible="true"
       id="path-effect3889"
       effect="spiro" />
    <inkscape:path-effect
       is_visible="true"
       id="path-effect6917"
       effect="spiro" />
    <inkscape:path-effect
       effect="spiro"
       id="path-effect6913"
       is_visible="true" />
    <inkscape:path-effect
       effect="spiro"
       id="path-effect6875"
       is_visible="true" />
    <marker
       inkscape:stockid="Arrow1Mend"
       orient="auto"
       refY="0"
       refX="0"
       id="Arrow1Mend"
       style="overflow:visible">
      <path
         id="path3955"
         d="M 0,0 5,-5 -12.5,0 5,5 0,0 z"
         style="fill-rule:evenodd;stroke:#000000;stroke-width:1pt;marker-start:none"
         transform="matrix(-0.4,0,0,-0.4,-4,0)"
         inkscape:connector-curvature="0" />
    </marker>
    <marker
       style="overflow:visible"
       inkscape:stockid="InfiniteLineStart"
       id="InfiniteLineStart"
       refX="0"
       refY="0"
       orient="auto">
      <g
         id="g4191"
         transform="translate(-13,0)">
        <circle
           d="M 3.8,0 C 3.8,0.44182781 3.4418278,0.80000001 3,0.80000001 2.5581722,0.80000001 2.2,0.44182781 2.2,0 c 0,-0.44182781 0.3581722,-0.80000001 0.8,-0.80000001 0.4418278,0 0.8,0.3581722 0.8,0.80000001 z"
           id="circle4193"
           r="0.80000001"
           cy="0"
           cx="3"
           sodipodi:cx="3"
           sodipodi:cy="0"
           sodipodi:rx="0.80000001"
           sodipodi:ry="0.80000001" />
        <circle
           d="M 7.3,0 C 7.3,0.44182781 6.9418278,0.80000001 6.5,0.80000001 6.0581722,0.80000001 5.7,0.44182781 5.7,0 c 0,-0.44182781 0.3581722,-0.80000001 0.8,-0.80000001 0.4418278,0 0.8,0.3581722 0.8,0.80000001 z"
           id="circle4195"
           r="0.80000001"
           cy="0"
           cx="6.5"
           sodipodi:cx="6.5"
           sodipodi:cy="0"
           sodipodi:rx="0.80000001"
           sodipodi:ry="0.80000001" />
        <circle
           d="M 10.8,0 C 10.8,0.44182781 10.441828,0.80000001 10,0.80000001 9.5581722,0.80000001 9.2,0.44182781 9.2,0 c 0,-0.44182781 0.3581722,-0.80000001 0.8,-0.80000001 0.441828,0 0.8,0.3581722 0.8,0.80000001 z"
           id="circle4197"
           r="0.80000001"
           cy="0"
           cx="10"
           sodipodi:cx="10"
           sodipodi:cy="0"
           sodipodi:rx="0.80000001"
           sodipodi:ry="0.80000001" />
      </g>
    </marker>
    <marker
       inkscape:stockid="RazorWire"
       id="RazorWire"
       refX="0"
       refY="0"
       orient="auto">
       style=&quot;overflow:visible&quot;&gt;
      <path
   id="path4179"
   transform="scale(0.8,0.8)"
   style="fill:#808080;fill-opacity:1;fill-rule:evenodd;stroke:#000000;stroke-width:0.1pt"
   d="m 0.02272727,-0.74009011 0,1.4375 -7.78124997,2.31250001 18.4374997,0 -7.1874997,-2.31250001 0,-1.4375 7.2499997,-2.15624999 -18.4687497,0 7.74999997,2.15624999 z"
   inkscape:connector-curvature="0" />
</marker>
    <marker
       inkscape:stockid="Tail"
       orient="auto"
       refY="0"
       refX="0"
       id="Tail"
       style="overflow:visible">
      <g
         id="g3982"
         transform="scale(-1.2,-1.2)">
        <path
           id="path3984"
           d="M -3.8048674,-3.9585227 0.54352094,0"
           style="fill:none;stroke:#000000;stroke-width:0.80000001;stroke-linecap:round;marker-start:none;marker-end:none"
           inkscape:connector-curvature="0" />
        <path
           id="path3986"
           d="M -1.2866832,-3.9585227 3.0617053,0"
           style="fill:none;stroke:#000000;stroke-width:0.80000001;stroke-linecap:round;marker-start:none;marker-end:none"
           inkscape:connector-curvature="0" />
        <path
           id="path3988"
           d="M 1.3053582,-3.9585227 5.6537466,0"
           style="fill:none;stroke:#000000;stroke-width:0.80000001;stroke-linecap:round;marker-start:none;marker-end:none"
           inkscape:connector-curvature="0" />
        <path
           id="path3990"
           d="M -3.8048674,4.1775838 0.54352094,0.21974226"
           style="fill:none;stroke:#000000;stroke-width:0.80000001;stroke-linecap:round;marker-start:none;marker-end:none"
           inkscape:connector-curvature="0" />
        <path
           id="path3992"
           d="M -1.2866832,4.1775838 3.0617053,0.21974226"
           style="fill:none;stroke:#000000;stroke-width:0.80000001;stroke-linecap:round;marker-start:none;marker-end:none"
           inkscape:connector-curvature="0" />
        <path
           id="path3994"
           d="M 1.3053582,4.1775838 5.6537466,0.21974226"
           style="fill:none;stroke:#000000;stroke-width:0.80000001;stroke-linecap:round;marker-start:none;marker-end:none"
           inkscape:connector-curvature="0" />
      </g>
    </marker>
    <marker
       inkscape:stockid="Scissors"
       orient="auto"
       refY="0"
       refX="0"
       id="Scissors"
       style="overflow:visible">
      <path
         id="schere"
         style="marker-start:none"
         d="M 9.0898857,-3.6061018 C 8.1198849,-4.7769976 6.3697607,-4.7358294 5.0623558,-4.2327734 l -8.2124046,3.0779029 c -2.3882933,-1.3067135 -4.7482873,-0.9325372 -4.7482873,-1.5687873 0,-0.4973164 0.4566662,-0.3883222 0.3883068,-1.6831941 -0.065635,-1.2432767 -1.3635771,-2.1630796 -2.5903987,-2.0816435 -1.227271,-0.00735 -2.499439,0.9331613 -2.510341,2.2300611 -0.09143,1.3063864 1.007209,2.5196896 2.306764,2.6052316 1.5223406,0.2266616 4.218258,-0.6955566 5.482945,1.57086006 -0.9422847,1.73825774 -2.6140244,1.74307674 -4.1255107,1.65607034 -1.2548743,-0.072235 -2.7620933,0.2873979 -3.3606483,1.5208605 -0.578367,1.1820862 -0.0112,2.8646022 1.316749,3.226412 1.3401912,0.4918277 3.1806689,-0.129711 3.4993722,-1.6707242 0.2456585,-1.187823 -0.5953659,-1.7459574 -0.2725074,-2.1771537 0.2436135,-0.32536 1.7907806,-0.1368452 4.5471053,-1.3748244 L 5.6763468,4.2330688 C 6.8000164,4.5467672 8.1730685,4.5362646 9.1684433,3.4313614 L -0.05164093,-0.05372222 9.0898857,-3.6061018 z m -18.3078016,-1.900504 c 1.294559,0.7227998 1.1888392,2.6835702 -0.1564272,3.0632889 -1.2165179,0.423661 -2.7710269,-0.7589694 -2.3831779,-2.0774648 0.227148,-1.0818519 1.653387,-1.480632 2.5396051,-0.9858241 z m 0.056264,8.0173649 c 1.3508301,0.4988648 1.1214429,2.7844356 -0.2522207,3.091609 -0.9110594,0.3163391 -2.2135494,-0.1387976 -2.3056964,-1.2121394 -0.177609,-1.305055 1.356085,-2.4841482 2.5579171,-1.8794696 z"
         inkscape:connector-curvature="0" />
    </marker>
    <linearGradient
       id="linearGradient4821"
       osb:paint="solid">
      <stop
         style="stop-color:#000000;stop-opacity:1;"
         offset="0"
         id="stop4823" />
    </linearGradient>
    <inkscape:path-effect
       effect="envelope"
       id="path-effect4775"
       is_visible="true"
       yy="true"
       xx="true"
       bendpath1="m 248.57143,300.93362 c 80.39091,-0.63702 153.12545,-0.72984 214.28572,0"
       bendpath2="m 464.91956,300.93362 -2.06241,108.57142"
       bendpath3="m 248.57143,409.50504 214.28572,0"
       bendpath4="m 248.57143,300.93362 8.24963,100.3624"
       bendpath1-nodetypes="cc"
       bendpath2-nodetypes="cc"
       bendpath4-nodetypes="cc"
       bendpath3-nodetypes="cc" />
    <marker
       inkscape:stockid="Arrow1Mstart"
       orient="auto"
       refY="0"
       refX="0"
       id="Arrow1Mstart"
       style="overflow:visible">
      <path
         id="path3952"
         d="M 0,0 5,-5 -12.5,0 5,5 0,0 z"
         style="fill-rule:evenodd;stroke:#000000;stroke-width:1pt;marker-start:none"
         transform="matrix(0.4,0,0,0.4,4,0)"
         inkscape:connector-curvature="0" />
    </marker>
    <marker
       inkscape:stockid="Arrow1Lstart"
       orient="auto"
       refY="0"
       refX="0"
       id="Arrow1Lstart"
       style="overflow:visible">
      <path
         id="path3946"
         d="M 0,0 5,-5 -12.5,0 5,5 0,0 z"
         style="fill-rule:evenodd;stroke:#000000;stroke-width:1pt;marker-start:none"
         transform="matrix(0.8,0,0,0.8,10,0)"
         inkscape:connector-curvature="0" />
    </marker>
  </defs>
  <sodipodi:namedview
     id="base"
     pagecolor="#ffffff"
     bordercolor="#666666"
     borderopacity="1.0"
     inkscape:pageopacity="0.0"
     inkscape:pageshadow="2"
     inkscape:zoom="0.08"
     inkscape:cx="-797.39721"
     inkscape:cy="3125.1073"
     inkscape:document-units="px"
     inkscape:current-layer="layer1"
     showgrid="false"
     inkscape:window-width="1920"
     inkscape:window-height="1080"
     inkscape:window-x="1367"
     inkscape:window-y="0"
     inkscape:window-maximized="0"
     fit-margin-top="100"
     fit-margin-left="100"
     fit-margin-right="100"
     fit-margin-bottom="100"
     showguides="true"
     inkscape:guide-bbox="true">
    <sodipodi:guide
       orientation="0,1"
       position="322.6364,4970.6555"
       id="guide3059" />
    <sodipodi:guide
       orientation="0,1"
       position="500.51795,4984.4661"
       id="guide3906" />
    <sodipodi:guide
       orientation="0,1"
       position="682.81892,5154.0613"
       id="guide3908" />
    <sodipodi:guide
       orientation="1,0"
       position="371.25,5483.3079"
       id="guide3910" />
    <sodipodi:guide
       orientation="0,1"
       position="461.29563,5141.3554"
       id="guide3912" />
    <sodipodi:guide
       orientation="0,1"
       position="560.73252,5206.5419"
       id="guide3914" />
    <sodipodi:guide
       orientation="1,0"
       position="384.73857,5276.1301"
       id="guide3916" />
    <sodipodi:guide
       orientation="1,0"
       position="437.08232,5227.6926"
       id="guide3920" />
    <sodipodi:guide
       orientation="1,0"
       position="449.69465,5258.47"
       id="guide3922" />
    <sodipodi:guide
       orientation="1,0"
       position="423.73058,5313.1603"
       id="guide3924" />
    <sodipodi:guide
       orientation="0,1"
       position="371.25,5193.2836"
       id="guide3926" />
    <sodipodi:guide
       orientation="0,1"
       position="693.31504,5035.8419"
       id="guide3968" />
    <sodipodi:guide
       orientation="0,1"
       position="470.48075,5022.8098"
       id="guide3972" />
    <sodipodi:guide
       orientation="1,0"
       position="404.23466,5193.9192"
       id="guide3976" />
  </sodipodi:namedview>
  <metadata
     id="metadata7">
    <rdf:RDF>
      <cc:Work
         rdf:about="">
        <dc:format>image/svg+xml</dc:format>
        <dc:type
           rdf:resource="http://purl.org/dc/dcmitype/StillImage" />
        <dc:title></dc:title>
      </cc:Work>
    </rdf:RDF>
  </metadata>
  <g
     inkscape:label="Layer 1"
     inkscape:groupmode="layer"
     id="layer1"
     transform="translate(68.50419,-180.73499)">
    <path
       sodipodi:nodetypes="cscccsccccscccsssscccccccccsccscscscccsccscscscsccsssssssssssssscscscssssscscscs"
       inkscape:connector-curvature="0"
       id="path4092"
       d="m 570.8125,2587.2048 c 0,0 -43.02525,10.2423 -60.28125,23.9063 -12.12667,9.6024 -23.66315,32.0398 -29.46875,44.5625 -6.23732,-0.4241 -12.51049,3.835 -18.5625,4.75 -24.18328,6.9019 -49.45219,-0.9801 -73.03125,-7.0625 -15.37151,-4.596 -31.47141,-8.2286 -47.6875,-8.3438 -1.08107,-0.01 -2.13671,0.01 -3.21875,0.031 -23.83116,-0.262 -46.46423,10.9919 -62.71875,28.0313 -2.52728,2.833 -6.75306,5.8236 -8.9375,9.375 L 238.5,2655.0798 c -2.78319,-2.658 -6.38581,-3.9394 -9.96875,-3.8437 -3.58294,0.096 -7.12631,1.5487 -9.75,4.4062 l -26.125,28.4063 c -0.0566,-0.041 -0.30696,0.06 -1.09375,1.1875 -5.76127,-0.9364 -11.66261,-1.4375 -17.6875,-1.4375 -60.53126,0 -109.59375,49.0625 -109.59375,109.5937 0,60.5313 49.06249,109.625 109.59375,109.625 60.53127,0 109.59375,-49.0937 109.59375,-109.625 0,-8.5274 -1.00097,-16.8144 -2.84375,-24.7812 l 26.125,-28.4375 c 5.20453,-5.6683 5.06637,-14.4651 -0.5,-19.7813 l -28.0625,-27.0625 c 1.55986,-0.8861 2.92238,-2.163 3.8125,-3.75 13.18799,-14.4212 30.31,-27.0511 50.40625,-28.25 33.04356,-3.1182 63.24613,13.7041 95.6875,16.8125 17.77721,2.9678 35.8663,-0.3712 52.625,-6.4687 0.80534,-0.011 1.5517,-0.146 2.25,-0.375 8.2741,9.4195 23.93493,26.1208 36.75,32.6562 18.21508,9.2894 61.84375,14.1563 61.84375,14.1563 -19.29439,-9.7165 -20.19961,-6.3512 -21.46875,-14.7188 0,0 15.08547,-4.5161 29.15625,-7.0937 10.55309,-1.9332 17.72676,-1.0985 20.65625,-0.5625 -3.0175,-0.7146 -10.54045,-2.6911 -14.46875,-5.625 -4.94492,-3.6931 -15.9375,-8.25 -15.9375,-8.25 0,0 11.71662,-1.8913 17.96875,-3.875 6.25213,-1.9837 19.28125,-8.1875 19.28125,-8.1875 l -32.0625,-1.7813 -26.5625,3.5313 c -0.24192,-2.292 10.05646,-5.5727 20.71875,-8.3438 11.27541,-2.9303 22.96875,-5.2812 22.96875,-5.2812 l -17.53125,-3.0313 c 0,0 10.95008,-11.8159 20.40625,-16.6875 9.45617,-4.8716 36.15625,-9.8125 36.15625,-9.8125 -13.40759,2.2983 -25.44159,-1.5885 -40.15625,-1.4687 -11.12147,0.091 -24.46745,4.9904 -37.25,2.3125 0,0 10.27105,-7.5687 20.09375,-11.0938 9.82269,-3.525 39,-7.2812 39,-7.2812 0,0 -33.67638,-2.843 -49.90625,-1.5 -16.22986,1.343 -46.875,9.25 -46.875,9.25 z m -447.34375,130.3125 c 14.22624,0 25.75,17.1752 25.75,38.375 0,21.1999 -11.52376,38.375 -25.75,38.375 -14.22624,0 -25.78125,-17.1751 -25.78125,-38.375 0,-21.1998 11.55501,-38.375 25.78125,-38.375 z m 56.875,2.4688 c 14.22624,0 25.78125,17.2064 25.78125,38.4062 0,21.1999 -11.55501,38.375 -25.78125,38.375 -14.22624,0 -25.75,-17.1751 -25.75,-38.375 0,-21.1998 11.52376,-38.4062 25.75,-38.4062 z M 122.25,2743.0486 c -3.22724,0.141 -6.43987,1.0708 -9.28125,2.7812 -9.19265,5.5338 -12.27605,17.377 -6.90625,26.4375 5.36979,9.0606 17.18235,11.9088 26.375,6.375 9.19264,-5.5337 12.27603,-17.3456 6.90625,-26.4062 0,0 -3.3023,-1.067 -8.90625,2.7187 -5.54427,3.7455 -9.65625,7.7813 -9.65625,7.7813 -0.61681,1.0794 -2.99705,-2.7693 2.40625,-11.7188 3.398,-5.628 4.84375,-7.3437 4.84375,-7.3437 -1.89774,-0.506 -3.8449,-0.7096 -5.78125,-0.625 z m 56.625,1.5 c -3.22724,0.141 -6.40863,1.1021 -9.25,2.8125 -9.19265,5.5337 -12.3073,17.3457 -6.9375,26.4062 5.36979,9.0606 17.18235,11.94 26.375,6.4063 9.19264,-5.5337 12.27603,-17.3769 6.90625,-26.4375 0,0 -3.27105,-1.0358 -8.875,2.75 -5.54427,3.7455 -9.65625,7.75 -9.65625,7.75 -0.61681,1.0794 -3.0283,-2.7693 2.375,-11.7188 3.398,-5.628 4.84375,-7.3437 4.84375,-7.3437 -1.89774,-0.506 -3.8449,-0.7096 -5.78125,-0.625 z"
       style="fill:#000000;fill-opacity:1;stroke:none" />
    <flowRoot
       transform="matrix(1.1018368,0,0,1.1018368,64.218702,2561.7968)"
       style="font-size:40px;font-style:normal;font-weight:normal;line-height:125%;letter-spacing:0px;word-spacing:0px;fill:#000000;fill-opacity:1;stroke:none;font-family:Sans"
       id="flowRoot4094"
       xml:space="preserve"><flowRegion
         id="flowRegion4096"><rect
           y="147.87463"
           x="258.53592"
           height="406.5864"
           width="888.30292"
           id="rect4098" /></flowRegion><flowPara
         style="font-size:130px;font-style:normal;font-variant:normal;font-weight:bold;font-stretch:normal;text-align:start;line-height:125%;writing-mode:lr-tb;text-anchor:start;font-family:Adobe Garamond Pro;-inkscape-font-specification:Adobe Garamond Pro Bold"
         id="flowPara4100">Sauerbomber</flowPara><flowPara
         id="flowPara4102"
         style="font-size:36px;font-style:normal;font-variant:normal;font-weight:normal;font-stretch:normal;text-align:start;line-height:125%;writing-mode:lr-tb;text-anchor:start;font-family:Adobe Garamond Pro;-inkscape-font-specification:Adobe Garamond Pro" /><flowPara
         id="flowPara4104"
         style="font-size:16px;font-style:normal;font-variant:normal;font-weight:normal;font-stretch:normal;text-align:start;line-height:125%;writing-mode:lr-tb;text-anchor:start;font-family:Adobe Garamond Pro;-inkscape-font-specification:Adobe Garamond Pro" /><flowPara
         id="flowPara4106"
         style="font-size:16px;font-style:normal;font-variant:normal;font-weight:normal;font-stretch:normal;text-align:start;line-height:125%;writing-mode:lr-tb;text-anchor:start;font-family:Adobe Garamond Pro;-inkscape-font-specification:Adobe Garamond Pro" /></flowRoot>    <flowRoot
       transform="matrix(1.4382093,0,0,1.4382093,-21.757907,2634.617)"
       style="font-size:40px;font-style:normal;font-weight:normal;line-height:125%;letter-spacing:0px;word-spacing:0px;fill:#000000;fill-opacity:1;stroke:none;font-family:Sans"
       id="flowRoot4108"
       xml:space="preserve"><flowRegion
         id="flowRegion4110"><rect
           y="147.87463"
           x="258.53592"
           height="406.5864"
           width="888.30292"
           id="rect4112" /></flowRegion><flowPara
         id="flowPara4114"
         style="font-size:36px;font-style:normal;font-variant:normal;font-weight:bold;font-stretch:normal;text-align:start;line-height:125%;writing-mode:lr-tb;text-anchor:start;font-family:Adobe Garamond Pro;-inkscape-font-specification:Adobe Garamond Pro Bold">Cube 2 ~ Sauerbraten</flowPara><flowPara
         id="flowPara4116"
         style="font-size:16px;font-style:normal;font-variant:normal;font-weight:normal;font-stretch:normal;text-align:start;line-height:125%;writing-mode:lr-tb;text-anchor:start;font-family:Adobe Garamond Pro;-inkscape-font-specification:Adobe Garamond Pro" /><flowPara
         id="flowPara4118"
         style="font-size:16px;font-style:normal;font-variant:normal;font-weight:normal;font-stretch:normal;text-align:start;line-height:125%;writing-mode:lr-tb;text-anchor:start;font-family:Adobe Garamond Pro;-inkscape-font-specification:Adobe Garamond Pro" /></flowRoot>    <path
       sodipodi:nodetypes="cscccsccccscccsssscccccccccsccscscscccsccscscscsccsssssssssssssscscscssssscscscs"
       inkscape:connector-curvature="0"
       id="path4120"
       d="m 573.05831,734.57989 c 0,0 -43.0252,10.2423 -60.2812,23.9063 -12.1267,9.6024 -23.6632,32.0398 -29.4688,44.5625 -6.2373,-0.4241 -12.5105,3.835 -18.5625,4.75 -24.1833,6.9019 -49.4522,-0.9801 -73.0312,-7.0625 -15.3716,-4.596 -31.4715,-8.2286 -47.6875,-8.3438 -1.0811,-0.01 -2.1368,0.01 -3.2188,0.031 -23.8312,-0.262 -46.4642,10.9919 -62.7187,28.0313 -2.5273,2.833 -6.7531,5.8236 -8.9375,9.375 l -28.4063,-27.3748 c -2.7832,-2.658 -6.3858,-3.9394 -9.9687,-3.8437 -3.583,0.096 -7.1264,1.5487 -9.75,4.4062 l -26.125,28.4063 c -0.057,-0.041 -0.307,0.06 -1.0938,1.1875 -5.7613,-0.9364 -11.6626,-1.4375 -17.6875,-1.4375 -60.5313,0 -109.5937,49.0625 -109.5937,109.59366 0,60.53095 49.0624,109.62495 109.5937,109.62495 60.5313,0 109.5938,-49.094 109.5938,-109.62495 0,-8.527 -1.001,-16.814 -2.8438,-24.78096 l 26.125,-28.4377 c 5.2045,-5.6683 5.0664,-14.4651 -0.5,-19.7813 l -28.0625,-27.0625 c 1.5599,-0.8861 2.9224,-2.163 3.8125,-3.75 13.188,-14.4212 30.31,-27.0511 50.4063,-28.25 33.0435,-3.1182 63.2461,13.7041 95.6875,16.8125 17.7772,2.9678 35.8663,-0.3712 52.625,-6.4687 0.8053,-0.011 1.5517,-0.146 2.25,-0.375 8.2741,9.4195 23.9349,26.1208 36.75,32.6562 18.215,9.2894 61.8437,14.1563 61.8437,14.1563 -19.2944,-9.7165 -20.1996,-6.3512 -21.4687,-14.7188 0,0 15.0854,-4.5161 29.1562,-7.0937 10.5531,-1.9332 17.7268,-1.0985 20.6563,-0.5625 -3.0175,-0.7146 -10.5405,-2.6911 -14.4688,-5.625 -4.9449,-3.6931 -15.9375,-8.25 -15.9375,-8.25 0,0 11.7166,-1.8913 17.9688,-3.875 6.2521,-1.9837 19.2812,-8.1875 19.2812,-8.1875 l -32.0625,-1.7813 -26.5625,3.5313 c -0.2419,-2.292 10.0565,-5.5727 20.7188,-8.3438 11.2754,-2.9303 22.9687,-5.2812 22.9687,-5.2812 l -17.5312,-3.0313 c 0,0 10.95,-11.8159 20.4062,-16.6875 9.4562,-4.8716 36.1563,-9.8125 36.1563,-9.8125 -13.4076,2.2983 -25.4416,-1.5885 -40.1563,-1.4687 -11.1215,0.091 -24.4674,4.9904 -37.25,2.3125 0,0 10.2711,-7.5687 20.0938,-11.0938 9.8226,-3.525 39,-7.2812 39,-7.2812 0,0 -33.6764,-2.843 -49.9063,-1.5 -16.2299,1.343 -46.875,9.25 -46.875,9.25 z m -447.3437,130.3125 c 14.2262,0 25.75,17.1752 25.75,38.375 0,21.19996 -11.5238,38.37496 -25.75,38.37496 -14.2263,0 -25.7813,-17.175 -25.7813,-38.37496 0,-21.1998 11.555,-38.375 25.7813,-38.375 z m 56.875,2.4688 c 14.2262,0 25.7812,17.2064 25.7812,38.4062 0,21.19996 -11.555,38.37496 -25.7812,38.37496 -14.2263,0 -25.75,-17.175 -25.75,-38.37496 0,-21.1998 11.5237,-38.4062 25.75,-38.4062 z m -58.0938,23.0622 c -3.2272,0.141 -6.4399,1.071 -9.2812,2.782 -9.1927,5.533 -12.2761,17.377 -6.9063,26.437 5.3698,9.06096 17.1824,11.90896 26.375,6.37496 9.1926,-5.53396 12.276,-17.34596 6.9063,-26.40596 0,0 -3.3023,-1.067 -8.9063,2.719 -5.5443,3.745 -9.6562,7.781 -9.6562,7.781 -0.6169,1.079 -2.9971,-2.769 2.4062,-11.719 3.398,-5.628 4.8438,-7.344 4.8438,-7.344 -1.8978,-0.506 -3.8449,-0.709 -5.7813,-0.625 z m 56.625,1.5 c -3.2272,0.141 -6.4086,1.102 -9.25,2.813 -9.1926,5.534 -12.3073,17.346 -6.9375,26.40596 5.3698,9.061 17.1824,11.94 26.375,6.406 9.1926,-5.533 12.276,-17.37696 6.9063,-26.43696 0,0 -3.2711,-1.036 -8.875,2.75 -5.5443,3.745 -9.6563,7.75 -9.6563,7.75 -0.6168,1.079 -3.0283,-2.769 2.375,-11.719 3.398,-5.628 4.8438,-7.344 4.8438,-7.344 -1.8978,-0.506 -3.8449,-0.709 -5.7813,-0.625 z"
       style="fill:#000000;fill-opacity:1;stroke:none" />
    <flowRoot
       transform="matrix(1.1018368,0,0,1.1018368,52.24201,651.81969)"
       style="font-size:40px;font-style:normal;font-weight:normal;line-height:125%;letter-spacing:0px;word-spacing:0px;fill:#000000;fill-opacity:1;stroke:none;font-family:Sans"
       id="flowRoot4122"
       xml:space="preserve"><flowRegion
         id="flowRegion4124"><rect
           y="147.87463"
           x="258.53592"
           height="406.5864"
           width="888.30292"
           id="rect4126" /></flowRegion><flowPara
         style="font-size:130px;font-style:normal;font-variant:normal;font-weight:normal;font-stretch:normal;text-align:start;line-height:125%;writing-mode:lr-tb;text-anchor:start;font-family:Agency;-inkscape-font-specification:Agency"
         id="flowPara4128">Sauerbomber</flowPara><flowPara
         id="flowPara4130"
         style="font-size:36px;font-style:normal;font-variant:normal;font-weight:normal;font-stretch:normal;text-align:start;line-height:125%;writing-mode:lr-tb;text-anchor:start;font-family:Adobe Garamond Pro;-inkscape-font-specification:Adobe Garamond Pro" /><flowPara
         id="flowPara4132"
         style="font-size:16px;font-style:normal;font-variant:normal;font-weight:normal;font-stretch:normal;text-align:start;line-height:125%;writing-mode:lr-tb;text-anchor:start;font-family:Adobe Garamond Pro;-inkscape-font-specification:Adobe Garamond Pro" /><flowPara
         id="flowPara4134"
         style="font-size:16px;font-style:normal;font-variant:normal;font-weight:normal;font-stretch:normal;text-align:start;line-height:125%;writing-mode:lr-tb;text-anchor:start;font-family:Adobe Garamond Pro;-inkscape-font-specification:Adobe Garamond Pro" /></flowRoot>    <flowRoot
       transform="matrix(1.429822,0,0,1.429822,-27.85209,762.69399)"
       style="font-size:40px;font-style:normal;font-weight:normal;line-height:125%;letter-spacing:0px;word-spacing:0px;fill:#000000;fill-opacity:1;stroke:none;font-family:Sans"
       id="flowRoot4136"
       xml:space="preserve"><flowRegion
         id="flowRegion4138"><rect
           y="147.87463"
           x="258.53592"
           height="406.5864"
           width="888.30292"
           id="rect4140" /></flowRegion><flowPara
         id="flowPara4142"
         style="font-size:36px;font-style:normal;font-variant:normal;font-weight:normal;font-stretch:normal;text-align:start;line-height:125%;writing-mode:lr-tb;text-anchor:start;font-family:Agency;-inkscape-font-specification:Agency">Cube 2 ~ Sauerbraten</flowPara><flowPara
         id="flowPara4144"
         style="font-size:16px;font-style:normal;font-variant:normal;font-weight:normal;font-stretch:normal;text-align:start;line-height:125%;writing-mode:lr-tb;text-anchor:start;font-family:Adobe Garamond Pro;-inkscape-font-specification:Adobe Garamond Pro" /><flowPara
         id="flowPara4146"
         style="font-size:16px;font-style:normal;font-variant:normal;font-weight:normal;font-stretch:normal;text-align:start;line-height:125%;writing-mode:lr-tb;text-anchor:start;font-family:Adobe Garamond Pro;-inkscape-font-specification:Adobe Garamond Pro" /></flowRoot>    <path
       sodipodi:nodetypes="cscccsccccscccsssscccccccccsccscscscccsccscscscsccsssssssssssssscscscssssscscscs"
       inkscape:connector-curvature="0"
       id="path4148"
       d="m 570.8125,3056.1296 c 0,0 -43.02525,10.242 -60.28125,23.906 -12.12667,9.602 -23.66315,32.04 -29.46875,44.562 -6.23732,-0.424 -12.51049,3.835 -18.5625,4.75 -24.18328,6.902 -49.45219,-0.98 -73.03125,-7.062 -15.37151,-4.596 -31.47141,-8.229 -47.6875,-8.344 -1.08107,-0.01 -2.13671,0.01 -3.21875,0.03 -23.83116,-0.262 -46.46423,10.992 -62.71875,28.031 -2.52728,2.833 -6.75306,5.824 -8.9375,9.375 L 238.5,3124.0046 c -2.78319,-2.658 -6.38581,-3.94 -9.96875,-3.844 -3.58294,0.1 -7.12631,1.549 -9.75,4.406 l -26.125,28.406 c -0.0566,-0.04 -0.30696,0.06 -1.09375,1.188 -5.76127,-0.937 -11.66261,-1.438 -17.6875,-1.438 -60.53126,0 -109.59375,49.063 -109.59375,109.594 0,60.531 49.06249,109.625 109.59375,109.625 60.53127,0 109.59375,-49.094 109.59375,-109.625 0,-8.527 -1.00097,-16.814 -2.84375,-24.781 l 26.125,-28.438 c 5.20453,-5.668 5.06637,-14.465 -0.5,-19.781 l -28.0625,-27.062 c 1.55986,-0.887 2.92238,-2.163 3.8125,-3.75 13.18799,-14.422 30.31,-27.052 50.40625,-28.25 33.04356,-3.119 63.24613,13.704 95.6875,16.812 17.77721,2.968 35.8663,-0.371 52.625,-6.469 0.80534,-0.01 1.5517,-0.146 2.25,-0.375 8.2741,9.42 23.93493,26.121 36.75,32.657 18.21508,9.289 61.84375,14.156 61.84375,14.156 -19.29439,-9.717 -20.19961,-6.351 -21.46875,-14.719 0,0 15.08547,-4.516 29.15625,-7.094 10.55309,-1.933 17.72676,-1.098 20.65625,-0.562 -3.0175,-0.715 -10.54045,-2.691 -14.46875,-5.625 -4.94492,-3.693 -15.9375,-8.25 -15.9375,-8.25 0,0 11.71662,-1.892 17.96875,-3.875 6.25213,-1.984 19.28125,-8.188 19.28125,-8.188 l -32.0625,-1.781 -26.5625,3.531 c -0.24192,-2.292 10.05646,-5.572 20.71875,-8.343 11.27541,-2.931 22.96875,-5.282 22.96875,-5.282 l -17.53125,-3.031 c 0,0 10.95008,-11.816 20.40625,-16.687 9.45617,-4.872 36.15625,-9.813 36.15625,-9.813 -13.40759,2.298 -25.44159,-1.588 -40.15625,-1.469 -11.12147,0.09 -24.46745,4.991 -37.25,2.313 0,0 10.27105,-7.569 20.09375,-11.094 9.82269,-3.525 39,-7.281 39,-7.281 0,0 -33.67638,-2.843 -49.90625,-1.5 -16.22986,1.343 -46.875,9.25 -46.875,9.25 z m -447.34375,130.312 c 14.22624,0 25.75,17.175 25.75,38.375 0,21.2 -11.52376,38.375 -25.75,38.375 -14.22624,0 -25.78125,-17.175 -25.78125,-38.375 0,-21.2 11.55501,-38.375 25.78125,-38.375 z m 56.875,2.469 c 14.22624,0 25.78125,17.206 25.78125,38.406 0,21.2 -11.55501,38.375 -25.78125,38.375 -14.22624,0 -25.75,-17.175 -25.75,-38.375 0,-21.2 11.52376,-38.406 25.75,-38.406 z m -58.09375,23.062 c -3.22724,0.141 -6.43987,1.071 -9.28125,2.782 -9.19265,5.533 -12.27605,17.377 -6.90625,26.437 5.36979,9.061 17.18235,11.909 26.375,6.375 9.19264,-5.534 12.27603,-17.346 6.90625,-26.406 0,0 -3.3023,-1.067 -8.90625,2.719 -5.54427,3.745 -9.65625,7.781 -9.65625,7.781 -0.61681,1.079 -2.99705,-2.769 2.40625,-11.719 3.398,-5.628 4.84375,-7.344 4.84375,-7.344 -1.89774,-0.506 -3.8449,-0.709 -5.78125,-0.625 z m 56.625,1.5 c -3.22724,0.141 -6.40863,1.102 -9.25,2.813 -9.19265,5.534 -12.3073,17.346 -6.9375,26.406 5.36979,9.061 17.18235,11.94 26.375,6.406 9.19264,-5.533 12.27603,-17.377 6.90625,-26.437 0,0 -3.27105,-1.036 -8.875,2.75 -5.54427,3.745 -9.65625,7.75 -9.65625,7.75 -0.61681,1.079 -3.0283,-2.769 2.375,-11.719 3.398,-5.628 4.84375,-7.344 4.84375,-7.344 -1.89774,-0.506 -3.8449,-0.709 -5.78125,-0.625 z"
       style="fill:#000000;fill-opacity:1;stroke:none" />
    <flowRoot
       transform="matrix(1.0591575,0,0,1.0591575,64.481727,3016.3326)"
       style="font-size:40px;font-style:normal;font-weight:normal;line-height:125%;letter-spacing:0px;word-spacing:0px;fill:#000000;fill-opacity:1;stroke:none;font-family:Sans"
       id="flowRoot4150"
       xml:space="preserve"><flowRegion
         id="flowRegion4152"><rect
           y="147.87463"
           x="258.53592"
           height="406.5864"
           width="888.30292"
           id="rect4154" /></flowRegion><flowPara
         style="font-size:130px;font-style:normal;font-variant:normal;font-weight:normal;font-stretch:normal;text-align:start;line-height:125%;writing-mode:lr-tb;text-anchor:start;font-family:AgencyFB;-inkscape-font-specification:AgencyFB"
         id="flowPara4156">Sauerbomber</flowPara><flowPara
         id="flowPara4158"
         style="font-size:36px;font-style:normal;font-variant:normal;font-weight:normal;font-stretch:normal;text-align:start;line-height:125%;writing-mode:lr-tb;text-anchor:start;font-family:Adobe Garamond Pro;-inkscape-font-specification:Adobe Garamond Pro" /><flowPara
         id="flowPara4160"
         style="font-size:16px;font-style:normal;font-variant:normal;font-weight:normal;font-stretch:normal;text-align:start;line-height:125%;writing-mode:lr-tb;text-anchor:start;font-family:Adobe Garamond Pro;-inkscape-font-specification:Adobe Garamond Pro" /><flowPara
         id="flowPara4162"
         style="font-size:16px;font-style:normal;font-variant:normal;font-weight:normal;font-stretch:normal;text-align:start;line-height:125%;writing-mode:lr-tb;text-anchor:start;font-family:Adobe Garamond Pro;-inkscape-font-specification:Adobe Garamond Pro" /></flowRoot>    <flowRoot
       transform="matrix(1.3912921,0,0,1.3912921,-19.04957,3102.7406)"
       style="font-size:40px;font-style:normal;font-weight:normal;line-height:125%;letter-spacing:0px;word-spacing:0px;fill:#000000;fill-opacity:1;stroke:none;font-family:Sans"
       id="flowRoot4164"
       xml:space="preserve"><flowRegion
         id="flowRegion4166"><rect
           y="147.87463"
           x="258.53592"
           height="406.5864"
           width="888.30292"
           id="rect4168" /></flowRegion><flowPara
         id="flowPara4170"
         style="font-size:36px;font-style:normal;font-variant:normal;font-weight:normal;font-stretch:normal;text-align:start;line-height:125%;writing-mode:lr-tb;text-anchor:start;font-family:AgencyFB;-inkscape-font-specification:AgencyFB">Cube 2 ~ Sauerbraten</flowPara><flowPara
         id="flowPara4172"
         style="font-size:16px;font-style:normal;font-variant:normal;font-weight:normal;font-stretch:normal;text-align:start;line-height:125%;writing-mode:lr-tb;text-anchor:start;font-family:Adobe Garamond Pro;-inkscape-font-specification:Adobe Garamond Pro" /><flowPara
         id="flowPara4174"
         style="font-size:16px;font-style:normal;font-variant:normal;font-weight:normal;font-stretch:normal;text-align:start;line-height:125%;writing-mode:lr-tb;text-anchor:start;font-family:Adobe Garamond Pro;-inkscape-font-specification:Adobe Garamond Pro" /></flowRoot>    <path
       sodipodi:nodetypes="cscccsccccscccsssscccccccccsccscscscccsccscscscsccsssssssssssssscscscssssscscscs"
       inkscape:connector-curvature="0"
       id="path4176"
       d="m 570.8125,3476.2306 c 0,0 -43.02525,10.242 -60.28125,23.906 -12.12667,9.602 -23.66315,32.04 -29.46875,44.562 -6.23732,-0.424 -12.51049,3.835 -18.5625,4.75 -24.18328,6.902 -49.45219,-0.98 -73.03125,-7.062 -15.37151,-4.596 -31.47141,-8.229 -47.6875,-8.344 -1.08107,-0.01 -2.13671,0.01 -3.21875,0.03 -23.83116,-0.262 -46.46423,10.992 -62.71875,28.031 -2.52728,2.833 -6.75306,5.824 -8.9375,9.375 L 238.5,3544.1056 c -2.78319,-2.658 -6.38581,-3.94 -9.96875,-3.844 -3.58294,0.1 -7.12631,1.549 -9.75,4.406 l -26.125,28.406 c -0.0566,-0.04 -0.30696,0.06 -1.09375,1.188 -5.76127,-0.937 -11.66261,-1.438 -17.6875,-1.438 -60.53126,0 -109.59375,49.063 -109.59375,109.594 0,60.531 49.06249,109.625 109.59375,109.625 60.53127,0 109.59375,-49.094 109.59375,-109.625 0,-8.527 -1.00097,-16.814 -2.84375,-24.781 l 26.125,-28.438 c 5.20453,-5.668 5.06637,-14.465 -0.5,-19.781 l -28.0625,-27.062 c 1.55986,-0.887 2.92238,-2.163 3.8125,-3.75 13.18799,-14.422 30.31,-27.052 50.40625,-28.25 33.04356,-3.119 63.24613,13.704 95.6875,16.812 17.77721,2.968 35.8663,-0.371 52.625,-6.469 0.80534,-0.01 1.5517,-0.146 2.25,-0.375 8.2741,9.42 23.93493,26.121 36.75,32.657 18.21508,9.289 61.84375,14.156 61.84375,14.156 -19.29439,-9.717 -20.19961,-6.351 -21.46875,-14.719 0,0 15.08547,-4.516 29.15625,-7.094 10.55309,-1.933 17.72676,-1.098 20.65625,-0.562 -3.0175,-0.715 -10.54045,-2.691 -14.46875,-5.625 -4.94492,-3.693 -15.9375,-8.25 -15.9375,-8.25 0,0 11.71662,-1.892 17.96875,-3.875 6.25213,-1.984 19.28125,-8.188 19.28125,-8.188 l -32.0625,-1.781 -26.5625,3.531 c -0.24192,-2.292 10.05646,-5.572 20.71875,-8.343 11.27541,-2.931 22.96875,-5.282 22.96875,-5.282 l -17.53125,-3.031 c 0,0 10.95008,-11.816 20.40625,-16.687 9.45617,-4.872 36.15625,-9.813 36.15625,-9.813 -13.40759,2.298 -25.44159,-1.588 -40.15625,-1.469 -11.12147,0.09 -24.46745,4.991 -37.25,2.313 0,0 10.27105,-7.569 20.09375,-11.094 9.82269,-3.525 39,-7.281 39,-7.281 0,0 -33.67638,-2.843 -49.90625,-1.5 -16.22986,1.343 -46.875,9.25 -46.875,9.25 z m -447.34375,130.312 c 14.22624,0 25.75,17.175 25.75,38.375 0,21.2 -11.52376,38.375 -25.75,38.375 -14.22624,0 -25.78125,-17.175 -25.78125,-38.375 0,-21.2 11.55501,-38.375 25.78125,-38.375 z m 56.875,2.469 c 14.22624,0 25.78125,17.206 25.78125,38.406 0,21.2 -11.55501,38.375 -25.78125,38.375 -14.22624,0 -25.75,-17.175 -25.75,-38.375 0,-21.2 11.52376,-38.406 25.75,-38.406 z m -58.09375,23.062 c -3.22724,0.141 -6.43987,1.071 -9.28125,2.782 -9.19265,5.533 -12.27605,17.377 -6.90625,26.437 5.36979,9.061 17.18235,11.909 26.375,6.375 9.19264,-5.534 12.27603,-17.346 6.90625,-26.406 0,0 -3.3023,-1.067 -8.90625,2.719 -5.54427,3.745 -9.65625,7.781 -9.65625,7.781 -0.61681,1.079 -2.99705,-2.769 2.40625,-11.719 3.398,-5.628 4.84375,-7.344 4.84375,-7.344 -1.89774,-0.506 -3.8449,-0.709 -5.78125,-0.625 z m 56.625,1.5 c -3.22724,0.141 -6.40863,1.102 -9.25,2.813 -9.19265,5.534 -12.3073,17.346 -6.9375,26.406 5.36979,9.061 17.18235,11.94 26.375,6.406 9.19264,-5.533 12.27603,-17.377 6.90625,-26.437 0,0 -3.27105,-1.036 -8.875,2.75 -5.54427,3.745 -9.65625,7.75 -9.65625,7.75 -0.61681,1.079 -3.0283,-2.769 2.375,-11.719 3.398,-5.628 4.84375,-7.344 4.84375,-7.344 -1.89774,-0.506 -3.8449,-0.709 -5.78125,-0.625 z"
       style="fill:#000000;fill-opacity:1;stroke:none" />
    <flowRoot
       transform="matrix(1.0468892,0,0,1.0468892,66.090776,3435.9626)"
       style="font-size:40px;font-style:normal;font-weight:normal;line-height:125%;letter-spacing:0px;word-spacing:0px;fill:#000000;fill-opacity:1;stroke:none;font-family:Sans"
       id="flowRoot4178"
       xml:space="preserve"><flowRegion
         id="flowRegion4180"><rect
           y="147.87463"
           x="258.53592"
           height="406.5864"
           width="888.30292"
           id="rect4182" /></flowRegion><flowPara
         style="font-size:130px;font-style:normal;font-variant:normal;font-weight:normal;font-stretch:normal;text-align:start;line-height:125%;writing-mode:lr-tb;text-anchor:start;font-family:Arvo;-inkscape-font-specification:Arvo"
         id="flowPara4184">Sauerbomber</flowPara><flowPara
         id="flowPara4186"
         style="font-size:36px;font-style:normal;font-variant:normal;font-weight:normal;font-stretch:normal;text-align:start;line-height:125%;writing-mode:lr-tb;text-anchor:start;font-family:Adobe Garamond Pro;-inkscape-font-specification:Adobe Garamond Pro" /><flowPara
         id="flowPara4188"
         style="font-size:16px;font-style:normal;font-variant:normal;font-weight:normal;font-stretch:normal;text-align:start;line-height:125%;writing-mode:lr-tb;text-anchor:start;font-family:Adobe Garamond Pro;-inkscape-font-specification:Adobe Garamond Pro" /><flowPara
         id="flowPara4190"
         style="font-size:16px;font-style:normal;font-variant:normal;font-weight:normal;font-stretch:normal;text-align:start;line-height:125%;writing-mode:lr-tb;text-anchor:start;font-family:Adobe Garamond Pro;-inkscape-font-specification:Adobe Garamond Pro" /></flowRoot>    <flowRoot
       transform="matrix(1.3723054,0,0,1.3723054,-14.558821,3524.9116)"
       style="font-size:40px;font-style:normal;font-weight:normal;line-height:125%;letter-spacing:0px;word-spacing:0px;fill:#000000;fill-opacity:1;stroke:none;font-family:Sans"
       id="flowRoot4192"
       xml:space="preserve"><flowRegion
         id="flowRegion4194"><rect
           y="147.87463"
           x="258.53592"
           height="406.5864"
           width="888.30292"
           id="rect4196" /></flowRegion><flowPara
         id="flowPara4198"
         style="font-size:36px;font-style:normal;font-variant:normal;font-weight:normal;font-stretch:normal;text-align:start;line-height:125%;writing-mode:lr-tb;text-anchor:start;font-family:Arvo;-inkscape-font-specification:Arvo">Cube 2 ~ Sauerbraten</flowPara><flowPara
         id="flowPara4200"
         style="font-size:16px;font-style:normal;font-variant:normal;font-weight:normal;font-stretch:normal;text-align:start;line-height:125%;writing-mode:lr-tb;text-anchor:start;font-family:Adobe Garamond Pro;-inkscape-font-specification:Adobe Garamond Pro" /><flowPara
         id="flowPara4202"
         style="font-size:16px;font-style:normal;font-variant:normal;font-weight:normal;font-stretch:normal;text-align:start;line-height:125%;writing-mode:lr-tb;text-anchor:start;font-family:Adobe Garamond Pro;-inkscape-font-specification:Adobe Garamond Pro" /></flowRoot>    <path
       sodipodi:nodetypes="cscccsccccscccsssscccccccccsccscscscccsccscscscsccsssssssssssssscscscssssscscscs"
       inkscape:connector-curvature="0"
       id="path4204"
       d="m 570.8125,3888.7306 c 0,0 -43.02525,10.242 -60.28125,23.906 -12.12667,9.602 -23.66315,32.04 -29.46875,44.562 -6.23732,-0.424 -12.51049,3.835 -18.5625,4.75 -24.18328,6.902 -49.45219,-0.98 -73.03125,-7.062 -15.37151,-4.596 -31.47141,-8.229 -47.6875,-8.344 -1.08107,-0.01 -2.13671,0.01 -3.21875,0.03 -23.83116,-0.262 -46.46423,10.992 -62.71875,28.031 -2.52728,2.833 -6.75306,5.824 -8.9375,9.375 L 238.5,3956.6056 c -2.78319,-2.658 -6.38581,-3.94 -9.96875,-3.844 -3.58294,0.1 -7.12631,1.549 -9.75,4.406 l -26.125,28.406 c -0.0566,-0.04 -0.30696,0.06 -1.09375,1.188 -5.76127,-0.937 -11.66261,-1.438 -17.6875,-1.438 -60.53126,0 -109.59375,49.063 -109.59375,109.594 0,60.531 49.06249,109.625 109.59375,109.625 60.53127,0 109.59375,-49.094 109.59375,-109.625 0,-8.527 -1.00097,-16.814 -2.84375,-24.781 l 26.125,-28.438 c 5.20453,-5.668 5.06637,-14.465 -0.5,-19.781 l -28.0625,-27.062 c 1.55986,-0.887 2.92238,-2.163 3.8125,-3.75 13.18799,-14.422 30.31,-27.052 50.40625,-28.25 33.04356,-3.119 63.24613,13.704 95.6875,16.812 17.77721,2.968 35.8663,-0.371 52.625,-6.469 0.80534,-0.01 1.5517,-0.146 2.25,-0.375 8.2741,9.42 23.93493,26.121 36.75,32.657 18.21508,9.289 61.84375,14.156 61.84375,14.156 -19.29439,-9.717 -20.19961,-6.351 -21.46875,-14.719 0,0 15.08547,-4.516 29.15625,-7.094 10.55309,-1.933 17.72676,-1.098 20.65625,-0.562 -3.0175,-0.715 -10.54045,-2.691 -14.46875,-5.625 -4.94492,-3.693 -15.9375,-8.25 -15.9375,-8.25 0,0 11.71662,-1.891 17.96875,-3.875 6.25213,-1.984 19.28125,-8.188 19.28125,-8.188 l -32.0625,-1.781 -26.5625,3.531 c -0.24192,-2.292 10.05646,-5.572 20.71875,-8.343 11.27541,-2.931 22.96875,-5.282 22.96875,-5.282 l -17.53125,-3.031 c 0,0 10.95008,-11.816 20.40625,-16.687 9.45617,-4.872 36.15625,-9.813 36.15625,-9.813 -13.40759,2.298 -25.44159,-1.588 -40.15625,-1.469 -11.12147,0.09 -24.46745,4.991 -37.25,2.313 0,0 10.27105,-7.569 20.09375,-11.094 9.82269,-3.525 39,-7.281 39,-7.281 0,0 -33.67638,-2.843 -49.90625,-1.5 -16.22986,1.343 -46.875,9.25 -46.875,9.25 z m -447.34375,130.312 c 14.22624,0 25.75,17.175 25.75,38.375 0,21.2 -11.52376,38.375 -25.75,38.375 -14.22624,0 -25.78125,-17.175 -25.78125,-38.375 0,-21.2 11.55501,-38.375 25.78125,-38.375 z m 56.875,2.469 c 14.22624,0 25.78125,17.206 25.78125,38.406 0,21.2 -11.55501,38.375 -25.78125,38.375 -14.22624,0 -25.75,-17.175 -25.75,-38.375 0,-21.2 11.52376,-38.406 25.75,-38.406 z m -58.09375,23.062 c -3.22724,0.141 -6.43987,1.071 -9.28125,2.782 -9.19265,5.533 -12.27605,17.377 -6.90625,26.437 5.36979,9.061 17.18235,11.909 26.375,6.375 9.19264,-5.534 12.27603,-17.346 6.90625,-26.406 0,0 -3.3023,-1.067 -8.90625,2.719 -5.54427,3.745 -9.65625,7.781 -9.65625,7.781 -0.61681,1.079 -2.99705,-2.769 2.40625,-11.719 3.398,-5.628 4.84375,-7.344 4.84375,-7.344 -1.89774,-0.506 -3.8449,-0.709 -5.78125,-0.625 z m 56.625,1.5 c -3.22724,0.141 -6.40863,1.102 -9.25,2.813 -9.19265,5.534 -12.3073,17.346 -6.9375,26.406 5.36979,9.061 17.18235,11.94 26.375,6.406 9.19264,-5.533 12.27603,-17.377 6.90625,-26.437 0,0 -3.27105,-1.036 -8.875,2.75 -5.54427,3.745 -9.65625,7.75 -9.65625,7.75 -0.61681,1.079 -3.0283,-2.769 2.375,-11.719 3.398,-5.628 4.84375,-7.344 4.84375,-7.344 -1.89774,-0.506 -3.8449,-0.709 -5.78125,-0.625 z"
       style="fill:#000000;fill-opacity:1;stroke:none" />
    <flowRoot
       transform="matrix(1.2934056,0,0,1.2934056,-0.12503688,3808.2036)"
       style="font-size:40px;font-style:normal;font-weight:normal;line-height:125%;letter-spacing:0px;word-spacing:0px;fill:#000000;fill-opacity:1;stroke:none;font-family:Sans"
       id="flowRoot4206"
       xml:space="preserve"><flowRegion
         id="flowRegion4208"><rect
           y="147.87463"
           x="258.53592"
           height="406.5864"
           width="888.30292"
           id="rect4210" /></flowRegion><flowPara
         style="font-size:106.5px;font-style:normal;font-variant:normal;font-weight:normal;font-stretch:normal;text-align:start;line-height:125%;writing-mode:lr-tb;text-anchor:start;font-family:Carme;-inkscape-font-specification:Carme"
         id="flowPara4212">Sauerbomber</flowPara><flowPara
         id="flowPara4214"
         style="font-size:106.5px;font-style:normal;font-variant:normal;font-weight:normal;font-stretch:normal;text-align:start;line-height:125%;writing-mode:lr-tb;text-anchor:start;font-family:Carme;-inkscape-font-specification:Carme" /><flowPara
         id="flowPara4216"
         style="font-size:106.5px;font-style:normal;font-variant:normal;font-weight:normal;font-stretch:normal;text-align:start;line-height:125%;writing-mode:lr-tb;text-anchor:start;font-family:Carme;-inkscape-font-specification:Carme" /><flowPara
         id="flowPara4218"
         style="font-size:106.5px;font-style:normal;font-variant:normal;font-weight:normal;font-stretch:normal;text-align:start;line-height:125%;writing-mode:lr-tb;text-anchor:start;font-family:Carme;-inkscape-font-specification:Carme" /></flowRoot>    <flowRoot
       transform="matrix(1.3942998,0,0,1.3942998,-21.542615,3932.2136)"
       style="font-size:40px;font-style:normal;font-weight:normal;line-height:125%;letter-spacing:0px;word-spacing:0px;fill:#000000;fill-opacity:1;stroke:none;font-family:Sans"
       id="flowRoot4220"
       xml:space="preserve"><flowRegion
         id="flowRegion4222"><rect
           y="147.87463"
           x="258.53592"
           height="406.5864"
           width="888.30292"
           id="rect4224" /></flowRegion><flowPara
         id="flowPara4226"
         style="font-size:36px;font-style:normal;font-variant:normal;font-weight:normal;font-stretch:normal;text-align:start;line-height:125%;writing-mode:lr-tb;text-anchor:start;font-family:Carme;-inkscape-font-specification:Carme">Cube 2 ~ Sauerbraten</flowPara><flowPara
         id="flowPara4228"
         style="font-size:16px;font-style:normal;font-variant:normal;font-weight:normal;font-stretch:normal;text-align:start;line-height:125%;writing-mode:lr-tb;text-anchor:start;font-family:Adobe Garamond Pro;-inkscape-font-specification:Adobe Garamond Pro" /><flowPara
         id="flowPara4230"
         style="font-size:16px;font-style:normal;font-variant:normal;font-weight:normal;font-stretch:normal;text-align:start;line-height:125%;writing-mode:lr-tb;text-anchor:start;font-family:Adobe Garamond Pro;-inkscape-font-specification:Adobe Garamond Pro" /></flowRoot>    <flowRoot
       xml:space="preserve"
       id="flowRoot4260"
       style="font-size:40px;font-style:normal;font-weight:normal;line-height:125%;letter-spacing:0px;word-spacing:0px;fill:#000000;fill-opacity:1;stroke:none;font-family:Sans"
       transform="translate(-41.96875,181.78125)"><flowRegion
         id="flowRegion4262"><rect
           id="rect4264"
           width="2900"
           height="875"
           x="-768.75"
           y="3280.3186" /></flowRegion><flowPara
         id="flowPara4266"></flowPara></flowRoot>    <path
       sodipodi:nodetypes="cscccsccccscccsssscccccccccsccscscscccsccscscscsccsssssssssssssscscscssssscscscs"
       inkscape:connector-curvature="0"
       id="path4268"
       d="m 570.8125,4307.4806 c 0,0 -43.02525,10.242 -60.28125,23.906 -12.12667,9.602 -23.66315,32.04 -29.46875,44.562 -6.23732,-0.424 -12.51049,3.835 -18.5625,4.75 -24.18328,6.902 -49.45219,-0.98 -73.03125,-7.062 -15.37151,-4.596 -31.47141,-8.229 -47.6875,-8.344 -1.08107,-0.01 -2.13671,0.01 -3.21875,0.03 -23.83116,-0.262 -46.46423,10.992 -62.71875,28.031 -2.52728,2.833 -6.75306,5.824 -8.9375,9.375 L 238.5,4375.3556 c -2.78319,-2.658 -6.38581,-3.94 -9.96875,-3.844 -3.58294,0.1 -7.12631,1.549 -9.75,4.406 l -26.125,28.406 c -0.0566,-0.04 -0.30696,0.06 -1.09375,1.188 -5.76127,-0.937 -11.66261,-1.438 -17.6875,-1.438 -60.53126,0 -109.59375,49.063 -109.59375,109.594 0,60.531 49.06249,109.625 109.59375,109.625 60.53127,0 109.59375,-49.094 109.59375,-109.625 0,-8.527 -1.00097,-16.814 -2.84375,-24.781 l 26.125,-28.438 c 5.20453,-5.668 5.06637,-14.465 -0.5,-19.781 l -28.0625,-27.062 c 1.55986,-0.887 2.92238,-2.163 3.8125,-3.75 13.18799,-14.422 30.31,-27.052 50.40625,-28.25 33.04356,-3.119 63.24613,13.704 95.6875,16.812 17.77721,2.968 35.8663,-0.371 52.625,-6.469 0.80534,-0.01 1.5517,-0.146 2.25,-0.375 8.2741,9.42 23.93493,26.121 36.75,32.657 18.21508,9.289 61.84375,14.156 61.84375,14.156 -19.29439,-9.717 -20.19961,-6.351 -21.46875,-14.719 0,0 15.08547,-4.516 29.15625,-7.094 10.55309,-1.933 17.72676,-1.098 20.65625,-0.562 -3.0175,-0.715 -10.54045,-2.691 -14.46875,-5.625 -4.94492,-3.693 -15.9375,-8.25 -15.9375,-8.25 0,0 11.71662,-1.891 17.96875,-3.875 6.25213,-1.984 19.28125,-8.188 19.28125,-8.188 l -32.0625,-1.781 -26.5625,3.531 c -0.24192,-2.292 10.05646,-5.572 20.71875,-8.343 11.27541,-2.931 22.96875,-5.282 22.96875,-5.282 l -17.53125,-3.031 c 0,0 10.95008,-11.816 20.40625,-16.687 9.45617,-4.872 36.15625,-9.813 36.15625,-9.813 -13.40759,2.298 -25.44159,-1.588 -40.15625,-1.469 -11.12147,0.09 -24.46745,4.991 -37.25,2.313 0,0 10.27105,-7.569 20.09375,-11.094 9.82269,-3.525 39,-7.281 39,-7.281 0,0 -33.67638,-2.843 -49.90625,-1.5 -16.22986,1.343 -46.875,9.25 -46.875,9.25 z m -447.34375,130.312 c 14.22624,0 25.75,17.175 25.75,38.375 0,21.2 -11.52376,38.375 -25.75,38.375 -14.22624,0 -25.78125,-17.175 -25.78125,-38.375 0,-21.2 11.55501,-38.375 25.78125,-38.375 z m 56.875,2.469 c 14.22624,0 25.78125,17.206 25.78125,38.406 0,21.2 -11.55501,38.375 -25.78125,38.375 -14.22624,0 -25.75,-17.175 -25.75,-38.375 0,-21.2 11.52376,-38.406 25.75,-38.406 z m -58.09375,23.062 c -3.22724,0.141 -6.43987,1.071 -9.28125,2.782 -9.19265,5.533 -12.27605,17.377 -6.90625,26.437 5.36979,9.061 17.18235,11.909 26.375,6.375 9.19264,-5.534 12.27603,-17.346 6.90625,-26.406 0,0 -3.3023,-1.067 -8.90625,2.719 -5.54427,3.745 -9.65625,7.781 -9.65625,7.781 -0.61681,1.079 -2.99705,-2.769 2.40625,-11.719 3.398,-5.628 4.84375,-7.344 4.84375,-7.344 -1.89774,-0.506 -3.8449,-0.709 -5.78125,-0.625 z m 56.625,1.5 c -3.22724,0.141 -6.40863,1.102 -9.25,2.813 -9.19265,5.534 -12.3073,17.346 -6.9375,26.406 5.36979,9.061 17.18235,11.94 26.375,6.406 9.19264,-5.533 12.27603,-17.377 6.90625,-26.437 0,0 -3.27105,-1.036 -8.875,2.75 -5.54427,3.745 -9.65625,7.75 -9.65625,7.75 -0.61681,1.079 -3.0283,-2.769 2.375,-11.719 3.398,-5.628 4.84375,-7.344 4.84375,-7.344 -1.89774,-0.506 -3.8449,-0.709 -5.78125,-0.625 z"
       style="fill:#000000;fill-opacity:1;stroke:none" />
    <flowRoot
       transform="matrix(1.3146819,0,0,1.3146819,-0.58407208,4216.2806)"
       style="font-size:40px;font-style:normal;font-weight:normal;line-height:125%;letter-spacing:0px;word-spacing:0px;fill:#000000;fill-opacity:1;stroke:none;font-family:Sans"
       id="flowRoot4270"
       xml:space="preserve"><flowRegion
         id="flowRegion4272"><rect
           y="147.87463"
           x="258.53592"
           height="406.5864"
           width="888.30292"
           id="rect4274" /></flowRegion><flowPara
         style="font-size:106.5px;font-style:normal;font-variant:normal;font-weight:600;font-stretch:normal;text-align:start;line-height:125%;writing-mode:lr-tb;text-anchor:start;font-family:Century Gothic;-inkscape-font-specification:Century Gothic Semi-Bold"
         id="flowPara4276">Sauerbomber</flowPara><flowPara
         id="flowPara4278"
         style="font-size:106.5px;font-style:normal;font-variant:normal;font-weight:normal;font-stretch:normal;text-align:start;line-height:125%;writing-mode:lr-tb;text-anchor:start;font-family:Carme;-inkscape-font-specification:Carme" /><flowPara
         id="flowPara4280"
         style="font-size:106.5px;font-style:normal;font-variant:normal;font-weight:normal;font-stretch:normal;text-align:start;line-height:125%;writing-mode:lr-tb;text-anchor:start;font-family:Carme;-inkscape-font-specification:Carme" /><flowPara
         id="flowPara4282"
         style="font-size:106.5px;font-style:normal;font-variant:normal;font-weight:normal;font-stretch:normal;text-align:start;line-height:125%;writing-mode:lr-tb;text-anchor:start;font-family:Carme;-inkscape-font-specification:Carme" /></flowRoot>    <flowRoot
       transform="matrix(1.4155918,0,0,1.4155918,-26.717227,4345.4556)"
       style="font-size:40px;font-style:normal;font-weight:normal;line-height:125%;letter-spacing:0px;word-spacing:0px;fill:#000000;fill-opacity:1;stroke:none;font-family:Sans"
       id="flowRoot4284"
       xml:space="preserve"><flowRegion
         id="flowRegion4286"><rect
           y="147.87463"
           x="258.53592"
           height="406.5864"
           width="888.30292"
           id="rect4288" /></flowRegion><flowPara
         id="flowPara4290"
         style="font-size:36px;font-style:normal;font-variant:normal;font-weight:normal;font-stretch:normal;text-align:start;line-height:125%;writing-mode:lr-tb;text-anchor:start;font-family:Century Gothic;-inkscape-font-specification:Century Gothic">Cube 2 ~ Sauerbraten</flowPara><flowPara
         id="flowPara4292"
         style="font-size:16px;font-style:normal;font-variant:normal;font-weight:normal;font-stretch:normal;text-align:start;line-height:125%;writing-mode:lr-tb;text-anchor:start;font-family:Adobe Garamond Pro;-inkscape-font-specification:Adobe Garamond Pro" /><flowPara
         id="flowPara4294"
         style="font-size:16px;font-style:normal;font-variant:normal;font-weight:normal;font-stretch:normal;text-align:start;line-height:125%;writing-mode:lr-tb;text-anchor:start;font-family:Adobe Garamond Pro;-inkscape-font-specification:Adobe Garamond Pro" /></flowRoot>    <path
       sodipodi:nodetypes="cscccsccccscccsssscccccccccsccscscscccsccscscscsccsssssssssssssscscscssssscscscs"
       inkscape:connector-curvature="0"
       id="path4296"
       d="m 570.8125,4788.5406 c 0,0 -43.02525,10.242 -60.28125,23.906 -12.12667,9.603 -23.66315,32.04 -29.46875,44.563 -6.23732,-0.424 -12.51049,3.835 -18.5625,4.75 -24.18328,6.902 -49.45219,-0.98 -73.03125,-7.063 -15.37151,-4.596 -31.47141,-8.228 -47.6875,-8.343 -1.08107,-0.01 -2.13671,0.01 -3.21875,0.03 -23.83116,-0.262 -46.46423,10.992 -62.71875,28.031 -2.52728,2.833 -6.75306,5.824 -8.9375,9.375 L 238.5,4856.4156 c -2.78319,-2.658 -6.38581,-3.939 -9.96875,-3.844 -3.58294,0.1 -7.12631,1.549 -9.75,4.407 l -26.125,28.406 c -0.0566,-0.04 -0.30696,0.06 -1.09375,1.187 -5.76127,-0.936 -11.66261,-1.437 -17.6875,-1.437 -60.53126,0 -109.59375,49.062 -109.59375,109.594 0,60.531 49.06249,109.625 109.59375,109.625 60.53127,0 109.59375,-49.094 109.59375,-109.625 0,-8.528 -1.00097,-16.815 -2.84375,-24.782 l 26.125,-28.437 c 5.20453,-5.668 5.06637,-14.465 -0.5,-19.781 l -28.0625,-27.063 c 1.55986,-0.886 2.92238,-2.163 3.8125,-3.75 13.18799,-14.421 30.31,-27.051 50.40625,-28.25 33.04356,-3.118 63.24613,13.704 95.6875,16.813 17.77721,2.967 35.8663,-0.372 52.625,-6.469 0.80534,-0.01 1.5517,-0.146 2.25,-0.375 8.2741,9.419 23.93493,26.121 36.75,32.656 18.21508,9.29 61.84375,14.156 61.84375,14.156 -19.29439,-9.716 -20.19961,-6.351 -21.46875,-14.718 0,0 15.08547,-4.516 29.15625,-7.094 10.55309,-1.933 17.72676,-1.099 20.65625,-0.563 -3.0175,-0.714 -10.54045,-2.691 -14.46875,-5.625 -4.94492,-3.693 -15.9375,-8.25 -15.9375,-8.25 0,0 11.71662,-1.891 17.96875,-3.875 6.25213,-1.983 19.28125,-8.187 19.28125,-8.187 l -32.0625,-1.781 -26.5625,3.531 c -0.24192,-2.292 10.05646,-5.573 20.71875,-8.344 11.27541,-2.93 22.96875,-5.281 22.96875,-5.281 l -17.53125,-3.031 c 0,0 10.95008,-11.816 20.40625,-16.688 9.45617,-4.871 36.15625,-9.812 36.15625,-9.812 -13.40759,2.298 -25.44159,-1.589 -40.15625,-1.469 -11.12147,0.09 -24.46745,4.99 -37.25,2.312 0,0 10.27105,-7.568 20.09375,-11.093 9.82269,-3.525 39,-7.282 39,-7.282 0,0 -33.67638,-2.843 -49.90625,-1.5 -16.22986,1.343 -46.875,9.25 -46.875,9.25 z m -447.34375,130.313 c 14.22624,0 25.75,17.175 25.75,38.375 0,21.2 -11.52376,38.375 -25.75,38.375 -14.22624,0 -25.78125,-17.175 -25.78125,-38.375 0,-21.2 11.55501,-38.375 25.78125,-38.375 z m 56.875,2.468 c 14.22624,0 25.78125,17.207 25.78125,38.407 0,21.2 -11.55501,38.375 -25.78125,38.375 -14.22624,0 -25.75,-17.175 -25.75,-38.375 0,-21.2 11.52376,-38.407 25.75,-38.407 z m -58.09375,23.063 c -3.22724,0.141 -6.43987,1.071 -9.28125,2.781 -9.19265,5.534 -12.27605,17.377 -6.90625,26.438 5.36979,9.06 17.18235,11.908 26.375,6.375 9.19264,-5.534 12.27603,-17.346 6.90625,-26.407 0,0 -3.3023,-1.067 -8.90625,2.719 -5.54427,3.746 -9.65625,7.781 -9.65625,7.781 -0.61681,1.08 -2.99705,-2.769 2.40625,-11.718 3.398,-5.628 4.84375,-7.344 4.84375,-7.344 -1.89774,-0.506 -3.8449,-0.71 -5.78125,-0.625 z m 56.625,1.5 c -3.22724,0.141 -6.40863,1.102 -9.25,2.812 -9.19265,5.534 -12.3073,17.346 -6.9375,26.407 5.36979,9.06 17.18235,11.94 26.375,6.406 9.19264,-5.534 12.27603,-17.377 6.90625,-26.438 0,0 -3.27105,-1.035 -8.875,2.75 -5.54427,3.746 -9.65625,7.75 -9.65625,7.75 -0.61681,1.08 -3.0283,-2.769 2.375,-11.718 3.398,-5.628 4.84375,-7.344 4.84375,-7.344 -1.89774,-0.506 -3.8449,-0.71 -5.78125,-0.625 z"
       style="fill:#000000;fill-opacity:1;stroke:none" />
    <flowRoot
       transform="matrix(1.4882799,0,0,1.4882799,-51.280857,4694.5206)"
       style="font-size:40px;font-style:normal;font-weight:normal;line-height:125%;letter-spacing:0px;word-spacing:0px;fill:#000000;fill-opacity:1;stroke:none;font-family:Sans"
       id="flowRoot4298"
       xml:space="preserve"><flowRegion
         id="flowRegion4300"><rect
           y="147.87463"
           x="258.53592"
           height="406.5864"
           width="888.30292"
           id="rect4302" /></flowRegion><flowPara
         style="font-size:106.5px;font-style:normal;font-variant:normal;font-weight:600;font-stretch:normal;text-align:start;line-height:125%;writing-mode:lr-tb;text-anchor:start;font-family:ITC Stone Sans Std;-inkscape-font-specification:ITC Stone Sans Std Semi-Bold"
         id="flowPara4304">Sauerbomber</flowPara><flowPara
         id="flowPara4306"
         style="font-size:106.5px;font-style:normal;font-variant:normal;font-weight:normal;font-stretch:normal;text-align:start;line-height:125%;writing-mode:lr-tb;text-anchor:start;font-family:Carme;-inkscape-font-specification:Carme" /><flowPara
         id="flowPara4308"
         style="font-size:106.5px;font-style:normal;font-variant:normal;font-weight:normal;font-stretch:normal;text-align:start;line-height:125%;writing-mode:lr-tb;text-anchor:start;font-family:Carme;-inkscape-font-specification:Carme" /><flowPara
         id="flowPara4310"
         style="font-size:106.5px;font-style:normal;font-variant:normal;font-weight:normal;font-stretch:normal;text-align:start;line-height:125%;writing-mode:lr-tb;text-anchor:start;font-family:Carme;-inkscape-font-specification:Carme" /></flowRoot>    <flowRoot
       transform="matrix(1.4260118,0,0,1.4260118,-29.120461,4838.2436)"
       style="font-size:40px;font-style:normal;font-weight:normal;line-height:125%;letter-spacing:0px;word-spacing:0px;fill:#000000;fill-opacity:1;stroke:none;font-family:Sans"
       id="flowRoot4312"
       xml:space="preserve"><flowRegion
         id="flowRegion4314"><rect
           y="147.87463"
           x="258.53592"
           height="406.5864"
           width="888.30292"
           id="rect4316" /></flowRegion><flowPara
         id="flowPara4318"
         style="font-size:36px;font-style:normal;font-variant:normal;font-weight:500;font-stretch:normal;text-align:start;line-height:125%;writing-mode:lr-tb;text-anchor:start;font-family:ITC Stone Sans Std;-inkscape-font-specification:ITC Stone Sans Std Medium">Cube 2 ~ Sauerbraten</flowPara><flowPara
         id="flowPara4320"
         style="font-size:16px;font-style:normal;font-variant:normal;font-weight:normal;font-stretch:normal;text-align:start;line-height:125%;writing-mode:lr-tb;text-anchor:start;font-family:Adobe Garamond Pro;-inkscape-font-specification:Adobe Garamond Pro" /><flowPara
         id="flowPara4322"
         style="font-size:16px;font-style:normal;font-variant:normal;font-weight:normal;font-stretch:normal;text-align:start;line-height:125%;writing-mode:lr-tb;text-anchor:start;font-family:Adobe Garamond Pro;-inkscape-font-specification:Adobe Garamond Pro" /></flowRoot>    <path
       sodipodi:nodetypes="cscccsccccscccsssscccccccccsccscscscccsccscscscsccsssssssssssssscscscssssscscscs"
       inkscape:connector-curvature="0"
       id="path4324"
       d="m 570.8125,5150.9326 c 0,0 -43.02525,10.243 -60.28125,23.907 -12.12667,9.602 -23.66315,32.04 -29.46875,44.562 -6.23732,-0.424 -12.51049,3.835 -18.5625,4.75 -24.18328,6.902 -49.45219,-0.98 -73.03125,-7.062 -15.37151,-4.596 -31.47141,-8.229 -47.6875,-8.344 -1.08107,-0.01 -2.13671,0.01 -3.21875,0.03 -23.83116,-0.262 -46.46423,10.992 -62.71875,28.031 -2.52728,2.833 -6.75306,5.824 -8.9375,9.375 L 238.5,5218.8076 c -2.78319,-2.658 -6.38581,-3.939 -9.96875,-3.843 -3.58294,0.1 -7.12631,1.548 -9.75,4.406 l -26.125,28.406 c -0.0566,-0.04 -0.30696,0.06 -1.09375,1.188 -5.76127,-0.937 -11.66261,-1.438 -17.6875,-1.438 -60.53126,0 -109.59375,49.063 -109.59375,109.594 0,60.531 49.06249,109.625 109.59375,109.625 60.53127,0 109.59375,-49.094 109.59375,-109.625 0,-8.527 -1.00097,-16.815 -2.84375,-24.781 l 26.125,-28.438 c 5.20453,-5.668 5.06637,-14.465 -0.5,-19.781 l -28.0625,-27.063 c 1.55986,-0.886 2.92238,-2.163 3.8125,-3.75 13.18799,-14.421 30.31,-27.051 50.40625,-28.25 33.04356,-3.118 63.24613,13.704 95.6875,16.813 17.77721,2.968 35.8663,-0.371 52.625,-6.469 0.80534,-0.01 1.5517,-0.146 2.25,-0.375 8.2741,9.42 23.93493,26.121 36.75,32.656 18.21508,9.29 61.84375,14.157 61.84375,14.157 -19.29439,-9.717 -20.19961,-6.352 -21.46875,-14.719 0,0 15.08547,-4.516 29.15625,-7.094 10.55309,-1.933 17.72676,-1.098 20.65625,-0.562 -3.0175,-0.715 -10.54045,-2.691 -14.46875,-5.625 -4.94492,-3.693 -15.9375,-8.25 -15.9375,-8.25 0,0 11.71662,-1.892 17.96875,-3.875 6.25213,-1.984 19.28125,-8.188 19.28125,-8.188 l -32.0625,-1.781 -26.5625,3.531 c -0.24192,-2.292 10.05646,-5.573 20.71875,-8.344 11.27541,-2.93 22.96875,-5.281 22.96875,-5.281 l -17.53125,-3.031 c 0,0 10.95008,-11.816 20.40625,-16.688 9.45617,-4.871 36.15625,-9.812 36.15625,-9.812 -13.40759,2.298 -25.44159,-1.589 -40.15625,-1.469 -11.12147,0.09 -24.46745,4.991 -37.25,2.313 0,0 10.27105,-7.569 20.09375,-11.094 9.82269,-3.525 39,-7.281 39,-7.281 0,0 -33.67638,-2.843 -49.90625,-1.5 -16.22986,1.343 -46.875,9.25 -46.875,9.25 z m -447.34375,130.313 c 14.22624,0 25.75,17.175 25.75,38.375 0,21.2 -11.52376,38.375 -25.75,38.375 -14.22624,0 -25.78125,-17.175 -25.78125,-38.375 0,-21.2 11.55501,-38.375 25.78125,-38.375 z m 56.875,2.469 c 14.22624,0 25.78125,17.206 25.78125,38.406 0,21.2 -11.55501,38.375 -25.78125,38.375 -14.22624,0 -25.75,-17.175 -25.75,-38.375 0,-21.2 11.52376,-38.406 25.75,-38.406 z m -58.09375,23.062 c -3.22724,0.141 -6.43987,1.071 -9.28125,2.781 -9.19265,5.534 -12.27605,17.377 -6.90625,26.438 5.36979,9.061 17.18235,11.909 26.375,6.375 9.19264,-5.534 12.27603,-17.346 6.90625,-26.406 0,0 -3.3023,-1.067 -8.90625,2.718 -5.54427,3.746 -9.65625,7.782 -9.65625,7.782 -0.61681,1.079 -2.99705,-2.77 2.40625,-11.719 3.398,-5.628 4.84375,-7.344 4.84375,-7.344 -1.89774,-0.506 -3.8449,-0.709 -5.78125,-0.625 z m 56.625,1.5 c -3.22724,0.141 -6.40863,1.102 -9.25,2.813 -9.19265,5.533 -12.3073,17.345 -6.9375,26.406 5.36979,9.061 17.18235,11.94 26.375,6.406 9.19264,-5.534 12.27603,-17.377 6.90625,-26.437 0,0 -3.27105,-1.036 -8.875,2.75 -5.54427,3.745 -9.65625,7.75 -9.65625,7.75 -0.61681,1.079 -3.0283,-2.77 2.375,-11.719 3.398,-5.628 4.84375,-7.344 4.84375,-7.344 -1.89774,-0.506 -3.8449,-0.709 -5.78125,-0.625 z"
       style="fill:#000000;fill-opacity:1;stroke:none" />
    <flowRoot
       transform="matrix(1.4641176,0,0,1.4641176,-43.868879,5035.9886)"
       style="font-size:40px;font-style:normal;font-weight:normal;line-height:125%;letter-spacing:0px;word-spacing:0px;fill:#000000;fill-opacity:1;stroke:none;font-family:Sans"
       id="flowRoot4326"
       xml:space="preserve"><flowRegion
         id="flowRegion4328"><rect
           y="147.87463"
           x="258.53592"
           height="406.5864"
           width="888.30292"
           id="rect4330" /></flowRegion><flowPara
         style="font-size:106.50000763px;font-style:normal;font-variant:normal;font-weight:bold;font-stretch:normal;text-align:start;line-height:125%;writing-mode:lr-tb;text-anchor:start;font-family:Josefin Sans;-inkscape-font-specification:Josefin Sans Bold"
         id="flowPara4332">Sauerbomber</flowPara><flowPara
         id="flowPara4334"
         style="font-size:106.5px;font-style:normal;font-variant:normal;font-weight:normal;font-stretch:normal;text-align:start;line-height:125%;writing-mode:lr-tb;text-anchor:start;font-family:Carme;-inkscape-font-specification:Carme" /><flowPara
         id="flowPara4336"
         style="font-size:106.5px;font-style:normal;font-variant:normal;font-weight:normal;font-stretch:normal;text-align:start;line-height:125%;writing-mode:lr-tb;text-anchor:start;font-family:Carme;-inkscape-font-specification:Carme" /><flowPara
         id="flowPara4338"
         style="font-size:106.5px;font-style:normal;font-variant:normal;font-weight:normal;font-stretch:normal;text-align:start;line-height:125%;writing-mode:lr-tb;text-anchor:start;font-family:Carme;-inkscape-font-specification:Carme" /></flowRoot>    <flowRoot
       transform="matrix(1.4045394,0,0,1.4045394,-24.213944,5195.9476)"
       style="font-size:40px;font-style:normal;font-weight:normal;line-height:125%;letter-spacing:0px;word-spacing:0px;fill:#000000;fill-opacity:1;stroke:none;font-family:Sans"
       id="flowRoot4340"
       xml:space="preserve"><flowRegion
         id="flowRegion4342"><rect
           y="147.87463"
           x="258.53592"
           height="406.5864"
           width="888.30292"
           id="rect4344" /></flowRegion><flowPara
         id="flowPara4346"
         style="font-size:36px;font-style:normal;font-variant:normal;font-weight:600;font-stretch:normal;text-align:start;line-height:125%;writing-mode:lr-tb;text-anchor:start;font-family:Josefin Sans;-inkscape-font-specification:Josefin Sans Semi-Bold">Cube 2 ~ Sauerbraten</flowPara><flowPara
         id="flowPara4348"
         style="font-size:16px;font-style:normal;font-variant:normal;font-weight:normal;font-stretch:normal;text-align:start;line-height:125%;writing-mode:lr-tb;text-anchor:start;font-family:Adobe Garamond Pro;-inkscape-font-specification:Adobe Garamond Pro" /><flowPara
         id="flowPara4350"
         style="font-size:16px;font-style:normal;font-variant:normal;font-weight:normal;font-stretch:normal;text-align:start;line-height:125%;writing-mode:lr-tb;text-anchor:start;font-family:Adobe Garamond Pro;-inkscape-font-specification:Adobe Garamond Pro" /></flowRoot>    <path
       sodipodi:nodetypes="cscccsccccscccsssscccccccccsccscscscccsccscscscsccsssssssssssssscscscssssscscscs"
       inkscape:connector-curvature="0"
       id="path4380"
       d="m 570.8125,1672.6876 c 0,0 -43.02525,10.2422 -60.28125,23.9062 -12.12667,9.6024 -23.66315,32.0399 -29.46875,44.5625 -6.23732,-0.4241 -12.51049,3.835 -18.5625,4.75 -24.18328,6.9019 -49.45219,-0.9801 -73.03125,-7.0625 -15.37151,-4.596 -31.47141,-8.2286 -47.6875,-8.3437 -1.08107,-0.01 -2.13671,0.01 -3.21875,0.031 -23.83116,-0.2621 -46.46423,10.9918 -62.71875,28.0312 -2.52728,2.833 -6.75306,5.8236 -8.9375,9.375 L 238.5,1740.5626 c -2.78319,-2.6581 -6.38581,-3.9395 -9.96875,-3.8438 -3.58294,0.096 -7.12631,1.5487 -9.75,4.4063 l -26.125,28.4062 c -0.0566,-0.041 -0.30696,0.06 -1.09375,1.1875 -5.76127,-0.9364 -11.66261,-1.4375 -17.6875,-1.4375 -60.53126,0 -109.59375,49.0625 -109.59375,109.5938 0,60.5312 49.06249,109.625 109.59375,109.625 60.53127,0 109.59375,-49.0938 109.59375,-109.625 0,-8.5274 -1.00097,-16.8145 -2.84375,-24.7813 l 26.125,-28.4375 c 5.20453,-5.6683 5.06637,-14.4651 -0.5,-19.7812 l -28.0625,-27.0625 c 1.55986,-0.8862 2.92238,-2.1631 3.8125,-3.75 13.18799,-14.4213 30.31,-27.0512 50.40625,-28.25 33.04356,-3.1183 63.24613,13.704 95.6875,16.8125 17.77721,2.9677 35.8663,-0.3713 52.625,-6.4688 0.80534,-0.011 1.5517,-0.146 2.25,-0.375 8.2741,9.4195 23.93493,26.1208 36.75,32.6563 18.21508,9.2893 61.84375,14.1562 61.84375,14.1562 -19.29439,-9.7165 -20.19961,-6.3512 -21.46875,-14.7187 0,0 15.08547,-4.5162 29.15625,-7.0938 10.55309,-1.9332 17.72676,-1.0985 20.65625,-0.5625 -3.0175,-0.7146 -10.54045,-2.6911 -14.46875,-5.625 -4.94492,-3.6931 -15.9375,-8.25 -15.9375,-8.25 0,0 11.71662,-1.8913 17.96875,-3.875 6.25213,-1.9837 19.28125,-8.1875 19.28125,-8.1875 l -32.0625,-1.7812 -26.5625,3.5312 c -0.24192,-2.292 10.05646,-5.5727 20.71875,-8.3437 11.27541,-2.9304 22.96875,-5.2813 22.96875,-5.2813 l -17.53125,-3.0312 c 0,0 10.95008,-11.8159 20.40625,-16.6875 9.45617,-4.8716 36.15625,-9.8125 36.15625,-9.8125 -13.40759,2.2982 -25.44159,-1.5886 -40.15625,-1.4688 -11.12147,0.09 -24.46745,4.9904 -37.25,2.3125 0,0 10.27105,-7.5686 20.09375,-11.0937 9.82269,-3.5251 39,-7.2813 39,-7.2813 0,0 -33.67638,-2.843 -49.90625,-1.5 -16.22986,1.343 -46.875,9.25 -46.875,9.25 z m -447.34375,130.3125 c 14.22624,0 25.75,17.1751 25.75,38.375 0,21.1998 -11.52376,38.375 -25.75,38.375 -14.22624,0 -25.78125,-17.1752 -25.78125,-38.375 0,-21.1999 11.55501,-38.375 25.78125,-38.375 z m 56.875,2.4687 c 14.22624,0 25.78125,17.2064 25.78125,38.4063 0,21.1998 -11.55501,38.375 -25.78125,38.375 -14.22624,0 -25.75,-17.1752 -25.75,-38.375 0,-21.1999 11.52376,-38.4063 25.75,-38.4063 z M 122.25,1828.5313 c -3.22724,0.141 -6.43987,1.0708 -9.28125,2.7813 -9.19265,5.5337 -12.27605,17.3769 -6.90625,26.4375 5.36979,9.0605 17.18235,11.9087 26.375,6.375 9.19264,-5.5338 12.27603,-17.3457 6.90625,-26.4063 0,0 -3.3023,-1.067 -8.90625,2.7188 -5.54427,3.7454 -9.65625,7.7812 -9.65625,7.7812 -0.61681,1.0794 -2.99705,-2.7693 2.40625,-11.7187 3.398,-5.6281 4.84375,-7.3438 4.84375,-7.3438 -1.89774,-0.506 -3.8449,-0.7096 -5.78125,-0.625 z m 56.625,1.5 c -3.22724,0.141 -6.40863,1.1021 -9.25,2.8125 -9.19265,5.5337 -12.3073,17.3457 -6.9375,26.4063 5.36979,9.0605 17.18235,11.9399 26.375,6.4062 9.19264,-5.5337 12.27603,-17.3769 6.90625,-26.4375 0,0 -3.27105,-1.0358 -8.875,2.75 -5.54427,3.7455 -9.65625,7.75 -9.65625,7.75 -0.61681,1.0794 -3.0283,-2.7693 2.375,-11.7187 3.398,-5.6281 4.84375,-7.3438 4.84375,-7.3438 -1.89774,-0.506 -3.8449,-0.7096 -5.78125,-0.625 z"
       style="fill:#000000;fill-opacity:1;stroke:none" />
    <flowRoot
       transform="matrix(1.4219006,0,0,1.4219006,-34.862788,1555.0362)"
       style="font-size:40px;font-style:normal;font-weight:normal;line-height:125%;letter-spacing:0px;word-spacing:0px;fill:#000000;fill-opacity:1;stroke:none;font-family:Sans"
       id="flowRoot4382"
       xml:space="preserve"><flowRegion
         id="flowRegion4384"><rect
           y="147.87463"
           x="258.53592"
           height="406.5864"
           width="888.30292"
           id="rect4386" /></flowRegion><flowPara
         style="font-size:106.50002289px;font-style:normal;font-variant:normal;font-weight:bold;font-stretch:normal;text-align:start;line-height:125%;writing-mode:lr-tb;text-anchor:start;font-family:Maven Pro;-inkscape-font-specification:Maven Pro Bold"
         id="flowPara4388">Sauerbomber</flowPara><flowPara
         id="flowPara4390"
         style="font-size:106.5px;font-style:normal;font-variant:normal;font-weight:normal;font-stretch:normal;text-align:start;line-height:125%;writing-mode:lr-tb;text-anchor:start;font-family:Carme;-inkscape-font-specification:Carme" /><flowPara
         id="flowPara4392"
         style="font-size:106.5px;font-style:normal;font-variant:normal;font-weight:normal;font-stretch:normal;text-align:start;line-height:125%;writing-mode:lr-tb;text-anchor:start;font-family:Carme;-inkscape-font-specification:Carme" /><flowPara
         id="flowPara4394"
         style="font-size:106.5px;font-style:normal;font-variant:normal;font-weight:normal;font-stretch:normal;text-align:start;line-height:125%;writing-mode:lr-tb;text-anchor:start;font-family:Carme;-inkscape-font-specification:Carme" /></flowRoot>    <flowRoot
       transform="matrix(1.526899,0,0,1.526899,-56.072591,1690.592)"
       style="font-size:40px;font-style:normal;font-weight:normal;line-height:125%;letter-spacing:0px;word-spacing:0px;fill:#000000;fill-opacity:1;stroke:none;font-family:Sans"
       id="flowRoot4396"
       xml:space="preserve"><flowRegion
         id="flowRegion4398"><rect
           y="147.87463"
           x="258.53592"
           height="406.5864"
           width="888.30292"
           id="rect4400" /></flowRegion><flowPara
         id="flowPara4402"
         style="font-size:36px;font-style:normal;font-variant:normal;font-weight:normal;font-stretch:normal;text-align:start;line-height:125%;writing-mode:lr-tb;text-anchor:start;font-family:Maven Pro;-inkscape-font-specification:Maven Pro">Cube 2 ~ Sauerbraten</flowPara><flowPara
         id="flowPara4404"
         style="font-size:16px;font-style:normal;font-variant:normal;font-weight:normal;font-stretch:normal;text-align:start;line-height:125%;writing-mode:lr-tb;text-anchor:start;font-family:Adobe Garamond Pro;-inkscape-font-specification:Adobe Garamond Pro" /><flowPara
         id="flowPara4406"
         style="font-size:16px;font-style:normal;font-variant:normal;font-weight:normal;font-stretch:normal;text-align:start;line-height:125%;writing-mode:lr-tb;text-anchor:start;font-family:Adobe Garamond Pro;-inkscape-font-specification:Adobe Garamond Pro" /></flowRoot>    <path
       sodipodi:nodetypes="cscccsccccscccsssscccccccccsccscscscccsccscscscsccsssssssssssssscscscssssscscscs"
       inkscape:connector-curvature="0"
       id="path4408"
       d="m 570.8125,1172.6876 c 0,0 -43.02525,10.2422 -60.28125,23.9062 -12.12667,9.6024 -23.66315,32.0399 -29.46875,44.5625 -6.23732,-0.4241 -12.51049,3.835 -18.5625,4.75 -24.18328,6.9019 -49.45219,-0.9801 -73.03125,-7.0625 -15.37151,-4.596 -31.47141,-8.2286 -47.6875,-8.3437 -1.08107,-0.01 -2.13671,0.01 -3.21875,0.031 -23.83116,-0.2621 -46.46423,10.9918 -62.71875,28.0312 -2.52728,2.833 -6.75306,5.8236 -8.9375,9.375 L 238.5,1240.5626 c -2.78319,-2.6581 -6.38581,-3.9395 -9.96875,-3.8438 -3.58294,0.096 -7.12631,1.5487 -9.75,4.4063 l -26.125,28.4062 c -0.0566,-0.041 -0.30696,0.06 -1.09375,1.1875 -5.76127,-0.9364 -11.66261,-1.4375 -17.6875,-1.4375 -60.53126,0 -109.59375,49.0625 -109.59375,109.5938 0,60.5312 49.06249,109.625 109.59375,109.625 60.53127,0 109.59375,-49.0938 109.59375,-109.625 0,-8.5274 -1.00097,-16.8145 -2.84375,-24.7813 l 26.125,-28.4375 c 5.20453,-5.6683 5.06637,-14.4651 -0.5,-19.7812 l -28.0625,-27.0625 c 1.55986,-0.8862 2.92238,-2.1631 3.8125,-3.75 13.18799,-14.4213 30.31,-27.0512 50.40625,-28.25 33.04356,-3.1183 63.24613,13.704 95.6875,16.8125 17.77721,2.9677 35.8663,-0.3713 52.625,-6.4688 0.80534,-0.011 1.5517,-0.146 2.25,-0.375 8.2741,9.4195 23.93493,26.1208 36.75,32.6563 18.21508,9.2893 61.84375,14.1562 61.84375,14.1562 -19.29439,-9.7165 -20.19961,-6.3512 -21.46875,-14.7187 0,0 15.08547,-4.5162 29.15625,-7.0938 10.55309,-1.9332 17.72676,-1.0985 20.65625,-0.5625 -3.0175,-0.7146 -10.54045,-2.6911 -14.46875,-5.625 -4.94492,-3.6931 -15.9375,-8.25 -15.9375,-8.25 0,0 11.71662,-1.8913 17.96875,-3.875 6.25213,-1.9837 19.28125,-8.1875 19.28125,-8.1875 l -32.0625,-1.7812 -26.5625,3.5312 c -0.24192,-2.292 10.05646,-5.5727 20.71875,-8.3437 11.27541,-2.9304 22.96875,-5.2813 22.96875,-5.2813 l -17.53125,-3.0312 c 0,0 10.95008,-11.8159 20.40625,-16.6875 9.45617,-4.8716 36.15625,-9.8125 36.15625,-9.8125 -13.40759,2.2982 -25.44159,-1.5886 -40.15625,-1.4688 -11.12147,0.09 -24.46745,4.9904 -37.25,2.3125 0,0 10.27105,-7.5686 20.09375,-11.0937 9.82269,-3.5251 39,-7.2813 39,-7.2813 0,0 -33.67638,-2.843 -49.90625,-1.5 -16.22986,1.343 -46.875,9.25 -46.875,9.25 z m -447.34375,130.3125 c 14.22624,0 25.75,17.1751 25.75,38.375 0,21.1998 -11.52376,38.375 -25.75,38.375 -14.22624,0 -25.78125,-17.1752 -25.78125,-38.375 0,-21.1999 11.55501,-38.375 25.78125,-38.375 z m 56.875,2.4687 c 14.22624,0 25.78125,17.2064 25.78125,38.4063 0,21.1998 -11.55501,38.375 -25.78125,38.375 -14.22624,0 -25.75,-17.1752 -25.75,-38.375 0,-21.1999 11.52376,-38.4063 25.75,-38.4063 z M 122.25,1328.5313 c -3.22724,0.141 -6.43987,1.0708 -9.28125,2.7813 -9.19265,5.5337 -12.27605,17.3769 -6.90625,26.4375 5.36979,9.0605 17.18235,11.9087 26.375,6.375 9.19264,-5.5338 12.27603,-17.3457 6.90625,-26.4063 0,0 -3.3023,-1.067 -8.90625,2.7188 -5.54427,3.7454 -9.65625,7.7812 -9.65625,7.7812 -0.61681,1.0794 -2.99705,-2.7693 2.40625,-11.7187 3.398,-5.6281 4.84375,-7.3438 4.84375,-7.3438 -1.89774,-0.506 -3.8449,-0.7096 -5.78125,-0.625 z m 56.625,1.5 c -3.22724,0.141 -6.40863,1.1021 -9.25,2.8125 -9.19265,5.5337 -12.3073,17.3457 -6.9375,26.4063 5.36979,9.0605 17.18235,11.9399 26.375,6.4062 9.19264,-5.5337 12.27603,-17.3769 6.90625,-26.4375 0,0 -3.27105,-1.0358 -8.875,2.75 -5.54427,3.7455 -9.65625,7.75 -9.65625,7.75 -0.61681,1.0794 -3.0283,-2.7693 2.375,-11.7187 3.398,-5.6281 4.84375,-7.3438 4.84375,-7.3438 -1.89774,-0.506 -3.8449,-0.7096 -5.78125,-0.625 z"
       style="fill:#000000;fill-opacity:1;stroke:none" />
    <flowRoot
       transform="matrix(1.4172175,0,0,1.4172175,-33.897095,1056.1301)"
       style="font-size:40px;font-style:normal;font-weight:normal;line-height:125%;letter-spacing:0px;word-spacing:0px;fill:#000000;fill-opacity:1;stroke:none;font-family:Sans"
       id="flowRoot4410"
       xml:space="preserve"><flowRegion
         id="flowRegion4412"><rect
           y="147.87463"
           x="258.53592"
           height="421.97076"
           width="1486.0944"
           id="rect4414" /></flowRegion><flowPara
         style="font-size:106.50002289px;font-style:normal;font-variant:normal;font-weight:normal;font-stretch:normal;text-align:start;line-height:125%;writing-mode:lr-tb;text-anchor:start;font-family:Michroma;-inkscape-font-specification:Michroma"
         id="flowPara4416">Sauerbomber</flowPara><flowPara
         id="flowPara4418"
         style="font-size:106.5px;font-style:normal;font-variant:normal;font-weight:normal;font-stretch:normal;text-align:start;line-height:125%;writing-mode:lr-tb;text-anchor:start;font-family:Carme;-inkscape-font-specification:Carme" /><flowPara
         id="flowPara4420"
         style="font-size:106.5px;font-style:normal;font-variant:normal;font-weight:normal;font-stretch:normal;text-align:start;line-height:125%;writing-mode:lr-tb;text-anchor:start;font-family:Carme;-inkscape-font-specification:Carme" /><flowPara
         id="flowPara4422"
         style="font-size:106.5px;font-style:normal;font-variant:normal;font-weight:normal;font-stretch:normal;text-align:start;line-height:125%;writing-mode:lr-tb;text-anchor:start;font-family:Carme;-inkscape-font-specification:Carme" /></flowRoot>    <flowRoot
       transform="matrix(1.360648,0,0,1.360648,-12.717437,1221.5059)"
       style="font-size:40px;font-style:normal;font-weight:normal;line-height:125%;letter-spacing:0px;word-spacing:0px;fill:#000000;fill-opacity:1;stroke:none;font-family:Sans"
       id="flowRoot4424"
       xml:space="preserve"><flowRegion
         id="flowRegion4426"><rect
           y="147.87463"
           x="258.53592"
           height="406.5864"
           width="888.30292"
           id="rect4428" /></flowRegion><flowPara
         id="flowPara4430"
         style="font-size:36px;font-style:normal;font-variant:normal;font-weight:normal;font-stretch:normal;text-align:start;line-height:125%;writing-mode:lr-tb;text-anchor:start;font-family:Michroma;-inkscape-font-specification:Michroma">Cube 2 ~ Sauerbraten</flowPara><flowPara
         id="flowPara4432"
         style="font-size:16px;font-style:normal;font-variant:normal;font-weight:normal;font-stretch:normal;text-align:start;line-height:125%;writing-mode:lr-tb;text-anchor:start;font-family:Adobe Garamond Pro;-inkscape-font-specification:Adobe Garamond Pro" /><flowPara
         id="flowPara4434"
         style="font-size:16px;font-style:normal;font-variant:normal;font-weight:normal;font-stretch:normal;text-align:start;line-height:125%;writing-mode:lr-tb;text-anchor:start;font-family:Adobe Garamond Pro;-inkscape-font-specification:Adobe Garamond Pro" /></flowRoot>    <path
       sodipodi:nodetypes="cscccsccccscccsssscccccccccsccscscscccsccscscscsccsssssssssssssscscscssssscscscs"
       inkscape:connector-curvature="0"
       id="path4436"
       d="m 570.8125,280.73499 c 0,0 -43.02525,10.2423 -60.28125,23.9063 -12.12667,9.6024 -23.66315,32.0398 -29.46875,44.5625 -6.23732,-0.4241 -12.51049,3.835 -18.5625,4.75 -24.18328,6.9019 -49.45219,-0.9801 -73.03125,-7.0625 -15.37151,-4.596 -31.47141,-8.2286 -47.6875,-8.3438 -1.08107,-0.01 -2.13671,0.01 -3.21875,0.031 -23.83116,-0.262 -46.46423,10.9919 -62.71875,28.0313 -2.52728,2.833 -6.75306,5.8236 -8.9375,9.375 L 238.5,348.60999 c -2.78319,-2.658 -6.38581,-3.9394 -9.96875,-3.8437 -3.58294,0.096 -7.12631,1.5487 -9.75,4.4062 l -26.125,28.4063 c -0.0566,-0.041 -0.30696,0.06 -1.09375,1.1875 -5.76127,-0.9364 -11.66261,-1.4375 -17.6875,-1.4375 -60.53126,0 -109.59375,49.0625 -109.59375,109.5937 0,60.5313 49.06249,109.625 109.59375,109.625 60.53127,0 109.59375,-49.0937 109.59375,-109.625 0,-8.5274 -1.00097,-16.8144 -2.84375,-24.7812 l 26.125,-28.4375 c 5.20453,-5.6683 5.06637,-14.4651 -0.5,-19.7813 l -28.0625,-27.0625 c 1.55986,-0.8861 2.92238,-2.163 3.8125,-3.75 13.18799,-14.4212 30.31,-27.0511 50.40625,-28.25 33.04356,-3.1182 63.24613,13.7041 95.6875,16.8125 17.77721,2.9678 35.8663,-0.3712 52.625,-6.4687 0.80534,-0.011 1.5517,-0.146 2.25,-0.375 8.2741,9.4195 23.93493,26.1208 36.75,32.6562 18.21508,9.2894 61.84375,14.1563 61.84375,14.1563 -19.29439,-9.7165 -20.19961,-6.3512 -21.46875,-14.7188 0,0 15.08547,-4.5161 29.15625,-7.0937 10.55309,-1.9332 17.72676,-1.0985 20.65625,-0.5625 -3.0175,-0.7146 -10.54045,-2.6911 -14.46875,-5.625 -4.94492,-3.6931 -15.9375,-8.25 -15.9375,-8.25 0,0 11.71662,-1.8913 17.96875,-3.875 6.25213,-1.9837 19.28125,-8.1875 19.28125,-8.1875 l -32.0625,-1.7813 -26.5625,3.5313 c -0.24192,-2.292 10.05646,-5.5727 20.71875,-8.3438 11.27541,-2.9303 22.96875,-5.2812 22.96875,-5.2812 l -17.53125,-3.0313 c 0,0 10.95008,-11.8159 20.40625,-16.6875 9.45617,-4.8716 36.15625,-9.8125 36.15625,-9.8125 -13.40759,2.2983 -25.44159,-1.5885 -40.15625,-1.4687 -11.12147,0.091 -24.46745,4.9904 -37.25,2.3125 0,0 10.27105,-7.5687 20.09375,-11.0938 9.82269,-3.525 39,-7.2812 39,-7.2812 0,0 -33.67638,-2.843 -49.90625,-1.5 -16.22986,1.343 -46.875,9.25 -46.875,9.25 z m -447.34375,130.3125 c 14.22624,0 25.75,17.1752 25.75,38.375 0,21.1999 -11.52376,38.375 -25.75,38.375 -14.22624,0 -25.78125,-17.1751 -25.78125,-38.375 0,-21.1998 11.55501,-38.375 25.78125,-38.375 z m 56.875,2.4688 c 14.22624,0 25.78125,17.2064 25.78125,38.4062 0,21.1999 -11.55501,38.375 -25.78125,38.375 -14.22624,0 -25.75,-17.1751 -25.75,-38.375 0,-21.1998 11.52376,-38.4062 25.75,-38.4062 z M 122.25,436.57879 c -3.22724,0.141 -6.43987,1.0708 -9.28125,2.7812 -9.19265,5.5338 -12.27605,17.377 -6.90625,26.4375 5.36979,9.0606 17.18235,11.9088 26.375,6.375 9.19264,-5.5337 12.27603,-17.3456 6.90625,-26.4062 0,0 -3.3023,-1.067 -8.90625,2.7187 -5.54427,3.7455 -9.65625,7.7813 -9.65625,7.7813 -0.61681,1.0794 -2.99705,-2.7693 2.40625,-11.7188 3.398,-5.628 4.84375,-7.3437 4.84375,-7.3437 -1.89774,-0.506 -3.8449,-0.7096 -5.78125,-0.625 z m 56.625,1.5 c -3.22724,0.141 -6.40863,1.1021 -9.25,2.8125 -9.19265,5.5337 -12.3073,17.3457 -6.9375,26.4062 5.36979,9.0606 17.18235,11.94 26.375,6.4063 9.19264,-5.5337 12.27603,-17.3769 6.90625,-26.4375 0,0 -3.27105,-1.0358 -8.875,2.75 -5.54427,3.7455 -9.65625,7.75 -9.65625,7.75 -0.61681,1.0794 -3.0283,-2.7693 2.375,-11.7188 3.398,-5.628 4.84375,-7.3437 4.84375,-7.3437 -1.89774,-0.506 -3.8449,-0.7096 -5.78125,-0.625 z"
       style="fill:#000000;fill-opacity:1;stroke:none" />
    <flowRoot
       transform="matrix(1.2739253,0,0,1.2739253,7.1597023,233.76819)"
       style="font-size:40px;font-style:normal;font-weight:normal;line-height:125%;letter-spacing:0px;word-spacing:0px;fill:#000000;fill-opacity:1;stroke:none;font-family:Sans"
       id="flowRoot4438"
       xml:space="preserve"><flowRegion
         id="flowRegion4440"><rect
           y="147.87463"
           x="258.53592"
           height="421.97076"
           width="1486.0944"
           id="rect4442" /></flowRegion><flowPara
         style="font-size:106.50002289px;font-style:normal;font-variant:normal;font-weight:bold;font-stretch:normal;text-align:start;line-height:125%;writing-mode:lr-tb;text-anchor:start;font-family:Stencil Std;-inkscape-font-specification:Stencil Std Bold"
         id="flowPara4444">Sauerbomber</flowPara><flowPara
         id="flowPara4446"
         style="font-size:106.5px;font-style:normal;font-variant:normal;font-weight:normal;font-stretch:normal;text-align:start;line-height:125%;writing-mode:lr-tb;text-anchor:start;font-family:Carme;-inkscape-font-specification:Carme" /><flowPara
         id="flowPara4448"
         style="font-size:106.5px;font-style:normal;font-variant:normal;font-weight:normal;font-stretch:normal;text-align:start;line-height:125%;writing-mode:lr-tb;text-anchor:start;font-family:Carme;-inkscape-font-specification:Carme" /><flowPara
         id="flowPara4450"
         style="font-size:106.5px;font-style:normal;font-variant:normal;font-weight:normal;font-stretch:normal;text-align:start;line-height:125%;writing-mode:lr-tb;text-anchor:start;font-family:Carme;-inkscape-font-specification:Carme" /></flowRoot>    <flowRoot
       transform="matrix(1.368486,0,0,1.368486,-12.8554,339.73339)"
       style="font-size:40px;font-style:normal;font-weight:normal;line-height:125%;letter-spacing:0px;word-spacing:0px;fill:#000000;fill-opacity:1;stroke:none;font-family:Sans"
       id="flowRoot4452"
       xml:space="preserve"><flowRegion
         id="flowRegion4454"><rect
           y="147.87463"
           x="258.53592"
           height="406.5864"
           width="888.30292"
           id="rect4456" /></flowRegion><flowPara
         id="flowPara4458"
         style="font-size:36px;font-style:normal;font-variant:normal;font-weight:bold;font-stretch:normal;text-align:start;line-height:125%;writing-mode:lr-tb;text-anchor:start;font-family:Stencil Std;-inkscape-font-specification:Stencil Std Bold">Cube 2 ~ Sauerbraten</flowPara><flowPara
         id="flowPara4460"
         style="font-size:16px;font-style:normal;font-variant:normal;font-weight:normal;font-stretch:normal;text-align:start;line-height:125%;writing-mode:lr-tb;text-anchor:start;font-family:Adobe Garamond Pro;-inkscape-font-specification:Adobe Garamond Pro" /><flowPara
         id="flowPara4462"
         style="font-size:16px;font-style:normal;font-variant:normal;font-weight:normal;font-stretch:normal;text-align:start;line-height:125%;writing-mode:lr-tb;text-anchor:start;font-family:Adobe Garamond Pro;-inkscape-font-specification:Adobe Garamond Pro" /></flowRoot>    <path
       sodipodi:nodetypes="cscccsccccscccsssscccccccccsccscscscccsccscscscsccsssssssssssssscscscssssscscscs"
       inkscape:connector-curvature="0"
       id="path4516"
       d="m 538.02706,2064.6193 c 0,0 -43.02525,10.2422 -60.28125,23.9063 -12.12667,9.6024 -23.66315,32.0398 -29.46875,44.5625 -6.23732,-0.4241 -12.51049,3.8349 -18.5625,4.75 -24.18328,6.9019 -49.45219,-0.9801 -73.03125,-7.0625 -15.37151,-4.596 -31.47141,-8.2286 -47.6875,-8.3438 -1.08107,-0.01 -2.13671,0.01 -3.21875,0.031 -23.83116,-0.262 -46.46423,10.9918 -62.71875,28.0313 -2.52728,2.833 -6.75306,5.8235 -8.9375,9.375 l -28.40625,-27.3748 c -2.78319,-2.658 -6.38581,-3.9394 -9.96875,-3.8437 -3.58294,0.096 -7.12631,1.5487 -9.75,4.4062 l -26.125,28.4063 c -0.0566,-0.041 -0.30696,0.06 -1.09375,1.1875 -5.76127,-0.9364 -11.66261,-1.4375 -17.6875,-1.4375 -60.53126,0 -109.59375,49.0625 -109.59375,109.5937 0,60.5313 49.06249,109.625 109.59375,109.625 60.53127,0 109.59375,-49.0937 109.59375,-109.625 0,-8.5274 -1.00097,-16.8144 -2.84375,-24.7812 l 26.125,-28.4375 c 5.20453,-5.6683 5.06637,-14.4651 -0.5,-19.7813 l -28.0625,-27.0625 c 1.55986,-0.8862 2.92238,-2.163 3.8125,-3.75 13.18799,-14.4212 30.31,-27.0512 50.40625,-28.25 33.04356,-3.1183 63.24613,13.7041 95.6875,16.8125 17.77721,2.9678 35.8663,-0.3712 52.625,-6.4687 0.80534,-0.011 1.5517,-0.1461 2.25,-0.375 8.2741,9.4194 23.93493,26.1208 36.75,32.6562 18.21508,9.2894 61.84375,14.1563 61.84375,14.1563 -19.29439,-9.7165 -20.19961,-6.3512 -21.46875,-14.7188 0,0 15.08547,-4.5161 29.15625,-7.0937 10.55309,-1.9332 17.72676,-1.0985 20.65625,-0.5625 -3.0175,-0.7146 -10.54045,-2.6912 -14.46875,-5.625 -4.94492,-3.6932 -15.9375,-8.25 -15.9375,-8.25 0,0 11.71662,-1.8914 17.96875,-3.875 6.25213,-1.9837 19.28125,-8.1875 19.28125,-8.1875 l -32.0625,-1.7813 -26.5625,3.5313 c -0.24192,-2.292 10.05646,-5.5727 20.71875,-8.3438 11.27541,-2.9304 22.96875,-5.2812 22.96875,-5.2812 l -17.53125,-3.0313 c 0,0 10.95008,-11.8159 20.40625,-16.6875 9.45617,-4.8716 36.15625,-9.8125 36.15625,-9.8125 -13.40759,2.2982 -25.44159,-1.5885 -40.15625,-1.4687 -11.12147,0.09 -24.46745,4.9904 -37.25,2.3125 0,0 10.27105,-7.5687 20.09375,-11.0938 9.82269,-3.5251 39,-7.2812 39,-7.2812 0,0 -33.67638,-2.843 -49.90625,-1.5 -16.22986,1.343 -46.875,9.25 -46.875,9.25 z M 90.68331,2194.9318 c 14.22624,0 25.75,17.1751 25.75,38.375 0,21.1999 -11.52376,38.375 -25.75,38.375 -14.22624,0 -25.78125,-17.1751 -25.78125,-38.375 0,-21.1999 11.55501,-38.375 25.78125,-38.375 z m 56.875,2.4688 c 14.22624,0 25.78125,17.2063 25.78125,38.4062 0,21.1999 -11.55501,38.375 -25.78125,38.375 -14.22624,0 -25.75,-17.1751 -25.75,-38.375 0,-21.1999 11.52376,-38.4062 25.75,-38.4062 z m -58.09375,23.0625 c -3.22724,0.141 -6.43987,1.0708 -9.28125,2.7812 -9.19265,5.5338 -12.27605,17.377 -6.90625,26.4375 5.36979,9.0606 17.18235,11.9087 26.375,6.375 9.19264,-5.5337 12.27603,-17.3456 6.90625,-26.4062 0,0 -3.3023,-1.0671 -8.90625,2.7187 -5.54427,3.7455 -9.65625,7.7813 -9.65625,7.7813 -0.61681,1.0794 -2.99705,-2.7693 2.40625,-11.7188 3.398,-5.6281 4.84375,-7.3437 4.84375,-7.3437 -1.89774,-0.5061 -3.8449,-0.7096 -5.78125,-0.625 z m 56.625,1.5 c -3.22724,0.141 -6.40863,1.102 -9.25,2.8125 -9.19265,5.5337 -12.3073,17.3457 -6.9375,26.4062 5.36979,9.0606 17.18235,11.94 26.375,6.4063 9.19264,-5.5337 12.27603,-17.3769 6.90625,-26.4375 0,0 -3.27105,-1.0358 -8.875,2.75 -5.54427,3.7455 -9.65625,7.75 -9.65625,7.75 -0.61681,1.0794 -3.0283,-2.7693 2.375,-11.7188 3.398,-5.6281 4.84375,-7.3437 4.84375,-7.3437 -1.89774,-0.5061 -3.8449,-0.7096 -5.78125,-0.625 z"
       style="fill:#000000;fill-opacity:1;stroke:none" />
    <flowRoot
       transform="matrix(1.622549,0,0,1.622549,-117.53835,1899.2747)"
       style="font-size:40px;font-style:normal;font-weight:normal;line-height:125%;letter-spacing:0px;word-spacing:0px;fill:#000000;fill-opacity:1;stroke:none;font-family:Sans"
       id="flowRoot4518"
       xml:space="preserve"><flowRegion
         id="flowRegion4520"><rect
           y="147.87463"
           x="258.53592"
           height="421.97076"
           width="1486.0944"
           id="rect4522" /></flowRegion><flowPara
         style="font-size:106.50002289px;font-style:normal;font-variant:normal;font-weight:bold;font-stretch:normal;text-align:start;line-height:125%;writing-mode:lr-tb;text-anchor:start;font-family:Rokkitt;-inkscape-font-specification:Rokkitt Bold"
         id="flowPara4524">Sauerbomber</flowPara><flowPara
         id="flowPara4526"
         style="font-size:106.5px;font-style:normal;font-variant:normal;font-weight:normal;font-stretch:normal;text-align:start;line-height:125%;writing-mode:lr-tb;text-anchor:start;font-family:Carme;-inkscape-font-specification:Carme" /><flowPara
         id="flowPara4528"
         style="font-size:106.5px;font-style:normal;font-variant:normal;font-weight:normal;font-stretch:normal;text-align:start;line-height:125%;writing-mode:lr-tb;text-anchor:start;font-family:Carme;-inkscape-font-specification:Carme" /><flowPara
         id="flowPara4530"
         style="font-size:106.5px;font-style:normal;font-variant:normal;font-weight:normal;font-stretch:normal;text-align:start;line-height:125%;writing-mode:lr-tb;text-anchor:start;font-family:Carme;-inkscape-font-specification:Carme" /></flowRoot>    <flowRoot
       transform="matrix(1.7492392,0,0,1.7492392,-145.28134,2042.9376)"
       style="font-size:40px;font-style:normal;font-weight:normal;line-height:125%;letter-spacing:0px;word-spacing:0px;fill:#000000;fill-opacity:1;stroke:none;font-family:Sans"
       id="flowRoot4532"
       xml:space="preserve"><flowRegion
         id="flowRegion4534"><rect
           y="147.87463"
           x="258.53592"
           height="406.5864"
           width="888.30292"
           id="rect4536" /></flowRegion><flowPara
         id="flowPara4538"
         style="font-size:36px;font-style:normal;font-variant:normal;font-weight:bold;font-stretch:normal;text-align:start;line-height:125%;writing-mode:lr-tb;text-anchor:start;font-family:Rokkitt;-inkscape-font-specification:Rokkitt">Cube 2 ~ Sauerbraten</flowPara><flowPara
         id="flowPara4540"
         style="font-size:16px;font-style:normal;font-variant:normal;font-weight:bold;font-stretch:normal;text-align:start;line-height:125%;writing-mode:lr-tb;text-anchor:start;font-family:Smokum;-inkscape-font-specification:Smokum Bold" /><flowPara
         id="flowPara4542"
         style="font-size:16px;font-style:normal;font-variant:normal;font-weight:bold;font-stretch:normal;text-align:start;line-height:125%;writing-mode:lr-tb;text-anchor:start;font-family:Smokum;-inkscape-font-specification:Smokum Bold" /></flowRoot>    <flowRoot
       xml:space="preserve"
       id="flowRoot4572"
       style="font-size:40px;font-style:normal;font-weight:normal;line-height:125%;letter-spacing:0px;word-spacing:0px;fill:#000000;fill-opacity:1;stroke:none;font-family:Sans"
       transform="translate(-41.96875,181.78125)"><flowRegion
         id="flowRegion4574"><rect
           id="rect4576"
           width="6225"
           height="5000"
           x="-1775"
           y="-3094.6814" /></flowRegion><flowPara
         id="flowPara4578"></flowPara></flowRoot>  </g>
</svg>
