<?xml version="1.0" encoding="UTF-8" standalone="no"?>
<!-- Created with Inkscape (http://www.inkscape.org/) -->

<svg
   xmlns:osb="http://www.openswatchbook.org/uri/2009/osb"
   xmlns:dc="http://purl.org/dc/elements/1.1/"
   xmlns:cc="http://creativecommons.org/ns#"
   xmlns:rdf="http://www.w3.org/1999/02/22-rdf-syntax-ns#"
   xmlns:svg="http://www.w3.org/2000/svg"
   xmlns="http://www.w3.org/2000/svg"
   xmlns:sodipodi="http://sodipodi.sourceforge.net/DTD/sodipodi-0.dtd"
   xmlns:inkscape="http://www.inkscape.org/namespaces/inkscape"
   width="744.09448819"
   height="1052.3622047"
   id="svg2"
   version="1.1"
   inkscape:version="0.48.2 r9819"
   sodipodi:docname="bomb.svg">
  <defs
     id="defs4">
    <inkscape:path-effect
       is_visible="true"
       id="path-effect3927"
       effect="spiro" />
    <inkscape:path-effect
       effect="spiro"
       id="path-effect3909"
       is_visible="true" />
    <inkscape:path-effect
       is_visible="true"
       id="path-effect3889"
       effect="spiro" />
    <inkscape:path-effect
       is_visible="true"
       id="path-effect6917"
       effect="spiro" />
    <inkscape:path-effect
       effect="spiro"
       id="path-effect6913"
       is_visible="true" />
    <inkscape:path-effect
       effect="spiro"
       id="path-effect6875"
       is_visible="true" />
    <marker
       inkscape:stockid="Arrow1Mend"
       orient="auto"
       refY="0.0"
       refX="0.0"
       id="Arrow1Mend"
       style="overflow:visible;">
      <path
         id="path3955"
         d="M 0.0,0.0 L 5.0,-5.0 L -12.5,0.0 L 5.0,5.0 L 0.0,0.0 z "
         style="fill-rule:evenodd;stroke:#000000;stroke-width:1.0pt;marker-start:none;"
         transform="scale(0.4) rotate(180) translate(10,0)" />
    </marker>
    <marker
       style="overflow:visible"
       inkscape:stockid="InfiniteLineStart"
       id="InfiniteLineStart"
       refX="0"
       refY="0"
       orient="auto">
      <g
         id="g4191"
         transform="translate(-13,0)">
        <circle
           d="M 3.8,0 C 3.8,0.44182781 3.4418278,0.80000001 3,0.80000001 2.5581722,0.80000001 2.2,0.44182781 2.2,0 c 0,-0.44182781 0.3581722,-0.80000001 0.8,-0.80000001 0.4418278,0 0.8,0.3581722 0.8,0.80000001 z"
           id="circle4193"
           r="0.8"
           cy="0"
           cx="3" />
        <circle
           d="M 7.3,0 C 7.3,0.44182781 6.9418278,0.80000001 6.5,0.80000001 6.0581722,0.80000001 5.7,0.44182781 5.7,0 c 0,-0.44182781 0.3581722,-0.80000001 0.8,-0.80000001 0.4418278,0 0.8,0.3581722 0.8,0.80000001 z"
           id="circle4195"
           r="0.8"
           cy="0"
           cx="6.5" />
        <circle
           d="M 10.8,0 C 10.8,0.44182781 10.441828,0.80000001 10,0.80000001 9.5581722,0.80000001 9.2,0.44182781 9.2,0 c 0,-0.44182781 0.3581722,-0.80000001 0.8,-0.80000001 0.441828,0 0.8,0.3581722 0.8,0.80000001 z"
           id="circle4197"
           r="0.8"
           cy="0"
           cx="10" />
      </g>
    </marker>
    <marker
       inkscape:stockid="RazorWire"
       id="RazorWire"
       refX="0"
       refY="0"
       orient="auto">
       style=&quot;overflow:visible&quot;&gt;
      <path
   id="path4179"
   transform="scale(0.8,0.8)"
   style="fill:#808080;fill-opacity:1;fill-rule:evenodd;stroke:#000000;stroke-width:0.1pt"
   d="M 0.022727273,-0.74009011 L 0.022727273,0.69740989 L -7.7585227,3.0099099 L 10.678977,3.0099099 L 3.4914773,0.69740989 L 3.4914773,-0.74009011 L 10.741477,-2.8963401 L -7.7272727,-2.8963401 L 0.022727273,-0.74009011 z " />
</marker>
    <marker
       inkscape:stockid="Tail"
       orient="auto"
       refY="0.0"
       refX="0.0"
       id="Tail"
       style="overflow:visible">
      <g
         id="g3982"
         transform="scale(-1.2)">
        <path
           id="path3984"
           d="M -3.8048674,-3.9585227 L 0.54352094,0"
           style="fill:none;fill-rule:evenodd;stroke:#000000;stroke-width:0.8;marker-start:none;marker-end:none;stroke-linecap:round" />
        <path
           id="path3986"
           d="M -1.2866832,-3.9585227 L 3.0617053,0"
           style="fill:none;fill-rule:evenodd;stroke:#000000;stroke-width:0.8;marker-start:none;marker-end:none;stroke-linecap:round" />
        <path
           id="path3988"
           d="M 1.3053582,-3.9585227 L 5.6537466,0"
           style="fill:none;fill-rule:evenodd;stroke:#000000;stroke-width:0.8;marker-start:none;marker-end:none;stroke-linecap:round" />
        <path
           id="path3990"
           d="M -3.8048674,4.1775838 L 0.54352094,0.21974226"
           style="fill:none;fill-rule:evenodd;stroke:#000000;stroke-width:0.8;marker-start:none;marker-end:none;stroke-linecap:round" />
        <path
           id="path3992"
           d="M -1.2866832,4.1775838 L 3.0617053,0.21974226"
           style="fill:none;fill-rule:evenodd;stroke:#000000;stroke-width:0.8;marker-start:none;marker-end:none;stroke-linecap:round" />
        <path
           id="path3994"
           d="M 1.3053582,4.1775838 L 5.6537466,0.21974226"
           style="fill:none;fill-rule:evenodd;stroke:#000000;stroke-width:0.8;marker-start:none;marker-end:none;stroke-linecap:round" />
      </g>
    </marker>
    <marker
       inkscape:stockid="Scissors"
       orient="auto"
       refY="0.0"
       refX="0.0"
       id="Scissors"
       style="overflow:visible">
      <path
         id="schere"
         style="marker-start:none"
         d="M 9.0898857,-3.6061018 C 8.1198849,-4.7769976 6.3697607,-4.7358294 5.0623558,-4.2327734 L -3.1500488,-1.1548705 C -5.5383421,-2.4615840 -7.8983361,-2.0874077 -7.8983361,-2.7236578 C -7.8983361,-3.2209742 -7.4416699,-3.1119800 -7.5100293,-4.4068519 C -7.5756648,-5.6501286 -8.8736064,-6.5699315 -10.100428,-6.4884954 C -11.327699,-6.4958500 -12.599867,-5.5553341 -12.610769,-4.2584343 C -12.702194,-2.9520479 -11.603560,-1.7387447 -10.304005,-1.6532027 C -8.7816644,-1.4265411 -6.0857470,-2.3487593 -4.8210600,-0.082342643 C -5.7633447,1.6559151 -7.4350844,1.6607341 -8.9465707,1.5737277 C -10.201445,1.5014928 -11.708664,1.8611256 -12.307219,3.0945882 C -12.885586,4.2766744 -12.318421,5.9591904 -10.990470,6.3210002 C -9.6502788,6.8128279 -7.8098011,6.1912892 -7.4910978,4.6502760 C -7.2454393,3.4624530 -8.0864637,2.9043186 -7.7636052,2.4731223 C -7.5199917,2.1477623 -5.9728246,2.3362771 -3.2164999,1.0982979 L 5.6763468,4.2330688 C 6.8000164,4.5467672 8.1730685,4.5362646 9.1684433,3.4313614 L -0.051640930,-0.053722219 L 9.0898857,-3.6061018 z M -9.2179159,-5.5066058 C -7.9233569,-4.7838060 -8.0290767,-2.8230356 -9.3743431,-2.4433169 C -10.590861,-2.0196559 -12.145370,-3.2022863 -11.757521,-4.5207817 C -11.530373,-5.6026336 -10.104134,-6.0014137 -9.2179159,-5.5066058 z M -9.1616516,2.5107591 C -7.8108215,3.0096239 -8.0402087,5.2951947 -9.4138723,5.6023681 C -10.324932,5.9187072 -11.627422,5.4635705 -11.719569,4.3902287 C -11.897178,3.0851737 -10.363484,1.9060805 -9.1616516,2.5107591 z " />
    </marker>
    <linearGradient
       id="linearGradient4821"
       osb:paint="solid">
      <stop
         style="stop-color:#000000;stop-opacity:1;"
         offset="0"
         id="stop4823" />
    </linearGradient>
    <inkscape:path-effect
       effect="envelope"
       id="path-effect4775"
       is_visible="true"
       yy="true"
       xx="true"
       bendpath1="m 248.57143,300.93362 c 80.39091,-0.63702 153.12545,-0.72984 214.28572,0"
       bendpath2="m 464.91956,300.93362 -2.06241,108.57142"
       bendpath3="m 248.57143,409.50504 214.28572,0"
       bendpath4="m 248.57143,300.93362 8.24963,100.3624"
       bendpath1-nodetypes="cc"
       bendpath2-nodetypes="cc"
       bendpath4-nodetypes="cc"
       bendpath3-nodetypes="cc" />
    <marker
       inkscape:stockid="Arrow1Mstart"
       orient="auto"
       refY="0.0"
       refX="0.0"
       id="Arrow1Mstart"
       style="overflow:visible">
      <path
         id="path3952"
         d="M 0.0,0.0 L 5.0,-5.0 L -12.5,0.0 L 5.0,5.0 L 0.0,0.0 z "
         style="fill-rule:evenodd;stroke:#000000;stroke-width:1.0pt;marker-start:none"
         transform="scale(0.4) translate(10,0)" />
    </marker>
    <marker
       inkscape:stockid="Arrow1Lstart"
       orient="auto"
       refY="0.0"
       refX="0.0"
       id="Arrow1Lstart"
       style="overflow:visible">
      <path
         id="path3946"
         d="M 0.0,0.0 L 5.0,-5.0 L -12.5,0.0 L 5.0,5.0 L 0.0,0.0 z "
         style="fill-rule:evenodd;stroke:#000000;stroke-width:1.0pt;marker-start:none"
         transform="scale(0.8) translate(12.5,0)" />
    </marker>
  </defs>
  <sodipodi:namedview
     id="base"
     pagecolor="#ffffff"
     bordercolor="#666666"
     borderopacity="1.0"
     inkscape:pageopacity="0.0"
     inkscape:pageshadow="2"
     inkscape:zoom="0.32"
     inkscape:cx="-96.914555"
     inkscape:cy="530.72151"
     inkscape:document-units="px"
     inkscape:current-layer="layer1"
     showgrid="false"
     inkscape:window-width="1366"
     inkscape:window-height="768"
     inkscape:window-x="0"
     inkscape:window-y="0"
     inkscape:window-maximized="0" />
  <metadata
     id="metadata7">
    <rdf:RDF>
      <cc:Work
         rdf:about="">
        <dc:format>image/svg+xml</dc:format>
        <dc:type
           rdf:resource="http://purl.org/dc/dcmitype/StillImage" />
        <dc:title />
      </cc:Work>
    </rdf:RDF>
  </metadata>
  <g
     inkscape:label="Layer 1"
     inkscape:groupmode="layer"
     id="layer1">
    <path
       style="fill:#000000;fill-opacity:1;stroke:none"
       d="m 443.32282,122.62724 c 5.19552,-20.70301 17.05186,-39.67947 33.38051,-53.426587 16.81988,-14.160687 38.30301,-22.686503 60.25589,-23.91321 l -45.04476,31.42145 c 15.22205,-4.784458 30.97065,-7.891627 46.86922,-9.24721 16.62269,-1.417325 33.40794,-0.919043 49.91729,1.48183 -13.321,-0.232118 -26.68372,2.269933 -39.01833,7.30584 -7.08919,2.894337 -13.83964,6.6174 -20.06989,11.06912 12.36149,-1.356538 24.78733,-2.126447 37.22173,-2.30627 13.40178,-0.193813 26.81344,0.297932 40.16504,1.47267 -12.61556,0.206741 -25.16613,3.608412 -36.15943,9.80055 -7.69429,4.333927 -14.62608,10.017227 -20.38413,16.712737 l 17.50609,3.02731 c -7.77313,1.14473 -15.45413,2.9144 -22.94452,5.28632 -7.1087,2.25105 -14.04562,5.04438 -20.7306,8.3477 l 26.57007,-3.53502 32.06611,1.76812 c -6.12976,3.37545 -12.60196,6.12863 -19.28495,8.20352 -5.86469,1.82083 -11.89134,3.11965 -17.98542,3.87608 5.14576,3.05892 10.47631,5.80695 15.95291,8.22411 5.19162,2.29138 10.51444,4.28546 15.93369,5.96921 -7.34055,-0.98886 -14.82447,-0.90697 -22.14162,0.24227 -10.32598,1.62181 -20.31114,5.38251 -29.14146,10.9755 l 21.4753,10.8294 c -21.38624,1.02434 -43.02758,-3.93021 -61.83798,-14.15711 -17.16954,-9.33479 -31.94931,-23.02357 -42.57076,-39.42833"
       id="path6911"
       inkscape:path-effect="#path-effect6913"
       inkscape:original-d="m 443.32282,122.62724 c 0,0 16.12451,-39.762547 33.38051,-53.426587 17.256,-13.66404 60.25589,-23.91321 60.25589,-23.91321 l -45.04476,31.42145 c 0,0 30.63936,-7.90423 46.86922,-9.24721 16.22987,-1.34299 49.91729,1.48183 49.91729,1.48183 0,0 -29.19564,3.78075 -39.01833,7.30584 -9.8227,3.5251 -20.06989,11.06912 -20.06989,11.06912 12.78255,2.67794 26.10026,-2.21575 37.22173,-2.30627 14.71466,-0.11977 26.75745,3.77088 40.16504,1.47267 0,0 -26.70326,4.92895 -36.15943,9.80055 -9.45617,4.871597 -20.38413,16.712737 -20.38413,16.712737 l 17.50609,3.02731 c 0,0 -11.66911,2.35594 -22.94452,5.28632 -10.66229,2.77103 -20.97252,6.05573 -20.7306,8.3477 l 26.57007,-3.53502 32.06611,1.76812 c 0,0 -13.03282,6.21986 -19.28495,8.20352 -6.25213,1.98366 -17.98542,3.87608 -17.98542,3.87608 0,0 11.00799,4.53098 15.95291,8.22411 4.94491,3.69313 15.93369,5.96921 15.93369,5.96921 0,0 -8.07084,-2.33531 -22.14162,0.24227 -14.07078,2.57758 -29.14146,10.9755 -29.14146,10.9755 1.26914,8.36756 27.96216,3.45663 21.4753,10.8294 0,0 -43.6229,-4.86777 -61.83798,-14.15711 -18.21508,-9.28934 -42.57076,-39.42833 -42.57076,-39.42833 z"
       inkscape:connector-curvature="0"
       sodipodi:nodetypes="czcczczcsczccsccczczczcczc" />
    <path
       style="fill:#000000;fill-opacity:1;fill-rule:nonzero;stroke:#000000;stroke-width:3.75;stroke-miterlimit:4;stroke-opacity:1;stroke-dashoffset:0"
       d="m 249.63395,251.50061 c 0,60.53126 -49.07028,109.60154 -109.60155,109.60154 -60.531264,0 -109.601544,-49.07028 -109.601544,-109.60154 0,-60.53127 49.07028,-109.60155 109.601544,-109.60155 60.53127,0 109.60155,49.07028 109.60155,109.60155 z"
       id="path4778"
       inkscape:connector-curvature="0" />
    <path
       transform="translate(-140.19023,-196.9245)"
       d="m 255.5686,410.91531 a 25.75889,38.385796 0 1 1 -51.51778,0 25.75889,38.385796 0 1 1 51.51778,0 z"
       sodipodi:ry="38.385796"
       sodipodi:rx="25.75889"
       sodipodi:cy="410.91531"
       sodipodi:cx="229.80971"
       id="path4831"
       style="fill:#ffffff;fill-opacity:1;stroke:#000000;stroke-width:3.75;stroke-miterlimit:4;stroke-opacity:1;stroke-dasharray:none;stroke-dashoffset:0"
       sodipodi:type="arc" />
    <path
       sodipodi:nodetypes="cssscscsc"
       inkscape:connector-curvature="0"
       id="path4829"
       d="m 104.13936,209.34535 c 5.36978,9.06058 2.27076,20.8916 -6.921885,26.42532 -9.19265,5.53372 -20.99784,2.67465 -26.36763,-6.38593 -5.3698,-9.06057 -2.27077,-20.89158 6.92188,-26.42531 4.5462,-2.73669 9.9808,-3.52146 15.04143,-2.17203 0,0 -1.44451,1.72658 -4.84251,7.35467 -5.4033,8.94946 -2.9987,12.77886 -2.38189,11.69944 0,0 4.11377,-4.0084 9.65804,-7.75389 5.603955,-3.78579 8.892565,-2.74227 8.892565,-2.74227 z"
       style="fill:#000000;fill-opacity:1;fill-rule:nonzero;stroke:#000000;stroke-width:2.58745646;stroke-miterlimit:4;stroke-opacity:1;stroke-dashoffset:0" />
    <path
       sodipodi:type="arc"
       style="fill:#ffffff;fill-opacity:1;stroke:#000000;stroke-width:3.75;stroke-miterlimit:4;stroke-opacity:1;stroke-dasharray:none;stroke-dashoffset:0"
       id="path4782"
       sodipodi:cx="229.80971"
       sodipodi:cy="410.91531"
       sodipodi:rx="25.75889"
       sodipodi:ry="38.385796"
       d="m 255.5686,410.91531 a 25.75889,38.385796 0 1 1 -51.51778,0 25.75889,38.385796 0 1 1 51.51778,0 z"
       transform="translate(-83.290235,-194.43858)" />
    <path
       style="fill:#000000;fill-opacity:1;fill-rule:nonzero;stroke:#000000;stroke-width:2.58745646;stroke-miterlimit:4;stroke-opacity:1;stroke-dashoffset:0"
       d="m 162.14421,211.83127 c 5.36978,9.06058 2.27076,20.8916 -6.92188,26.42532 -9.19265,5.53372 -20.99784,2.67465 -26.36763,-6.38593 -5.3698,-9.06057 -2.27077,-20.89158 6.92188,-26.42531 4.5462,-2.73669 9.9808,-3.52146 15.04143,-2.17203 0,0 -1.44451,1.72658 -4.84251,7.35467 -5.4033,8.94946 -2.9987,12.77886 -2.38189,11.69944 0,0 4.11377,-4.0084 9.65804,-7.75389 5.60395,-3.78579 8.89256,-2.74227 8.89256,-2.74227 z"
       id="path4835"
       inkscape:connector-curvature="0"
       sodipodi:nodetypes="cssscscsc" />
    <path
       style="fill:#000000;fill-opacity:1;stroke:none;stroke-width:3.75399995;marker-start:none"
       d="m 155.25141,151.73911 31.07426,-36.71475 c 4.34536,-5.13411 12.28616,-5.17188 17.05966,-0.49437 l 67.20603,65.85464 c 4.77352,4.67753 4.73394,12.02403 0.38856,17.15817 l -31.07426,36.71477"
       inkscape:connector-curvature="0"
       sodipodi:nodetypes="cssssc"
       id="rect4837" />
    <path
       style="font-size:medium;font-style:normal;font-variant:normal;font-weight:normal;font-stretch:normal;text-indent:0;text-align:start;text-decoration:none;line-height:normal;letter-spacing:normal;word-spacing:normal;text-transform:none;direction:ltr;block-progression:tb;writing-mode:lr-tb;text-anchor:start;baseline-shift:baseline;color:#000000;fill:#000000;fill-opacity:1;fill-rule:nonzero;stroke:none;stroke-width:3.75399995;marker:none;visibility:visible;display:inline;overflow:visible;enable-background:accumulate;font-family:Sans;-inkscape-font-specification:Sans"
       d="m 194.70262,109.33671 c -3.58294,0.0957 -7.12631,1.54872 -9.75,4.40625 l -26.125,28.4375 c 0,0 -0.009,-0.46125 -1.25,1.375 -1.24097,1.83625 -4.98398,10.29648 -4.98398,10.29648 l 9.01523,-9.14023 26.09375,-28.40625 c 3.85077,-4.19397 10.27508,-4.32184 14.375,-0.40625 l 67.7554,65.29672 c 4.09993,3.91562 4.20623,10.29055 0.3125,14.53125 l -26.09375,28.4375 -7.35795,8.00413 8.85795,-4.09788 1.25,-1.375 26.125,-28.4375 c 5.20453,-5.6683 5.06637,-14.46511 -0.5,-19.78125 l -67.7554,-65.29672 c -2.78319,-2.65806 -6.38581,-3.93946 -9.96875,-3.84375 z"
       id="path6850"
       inkscape:connector-curvature="0"
       sodipodi:nodetypes="scczcccccccccccccs" />
    <path
       inkscape:connector-curvature="0"
       id="path3867"
       d="m 304.7119,103.13034 c -23.83116,-0.26205 -46.46423,10.99181 -62.71875,28.03125 -4.30433,4.82508 -13.53246,10.17148 -9.21875,17.8125 3.50093,6.12842 12.2677,4.2397 15.37964,-1.30842 13.18799,-14.42121 30.33092,-27.03679 50.42717,-28.23561 33.04356,-3.11829 63.22057,13.68556 95.66194,16.79403 17.77721,2.96776 35.8663,-0.37121 52.625,-6.46875 7.95494,-0.10844 10.96094,-11.86043 3.625,-15.3125 -7.30377,-2.72407 -14.72352,3.01177 -21.83652,4.08722 -24.18328,6.90193 -49.44573,-0.98911 -73.02479,-7.07149 -16.39628,-4.90242 -33.60728,-8.71914 -50.91994,-8.32823 z"
       style="font-size:medium;font-style:normal;font-variant:normal;font-weight:normal;font-stretch:normal;text-indent:0;text-align:start;text-decoration:none;line-height:normal;letter-spacing:normal;word-spacing:normal;text-transform:none;direction:ltr;block-progression:tb;writing-mode:lr-tb;text-anchor:start;baseline-shift:baseline;color:#000000;fill:#000000;fill-opacity:1;stroke:#ffffff;stroke-width:4.69999981;stroke-linecap:square;stroke-linejoin:bevel;stroke-miterlimit:21.39999962;stroke-opacity:1;stroke-dasharray:none;marker:none;visibility:visible;display:inline;overflow:visible;enable-background:accumulate;font-family:Sans;-inkscape-font-specification:Sans" />
    <path
       style="font-size:medium;font-style:normal;font-variant:normal;font-weight:normal;font-stretch:normal;text-indent:0;text-align:start;text-decoration:none;line-height:normal;letter-spacing:normal;word-spacing:normal;text-transform:none;direction:ltr;block-progression:tb;writing-mode:lr-tb;text-anchor:start;baseline-shift:baseline;color:#000000;fill:#000000;fill-opacity:1;stroke:none;stroke-width:2.29999995;marker:none;visibility:visible;display:inline;overflow:visible;enable-background:accumulate;font-family:Sans;-inkscape-font-specification:Sans"
       d="m 304.7119,103.13034 c -23.83116,-0.26205 -46.46423,10.99181 -62.71875,28.03125 -4.30433,4.82508 -13.53246,10.17148 -9.21875,17.8125 3.50093,6.12842 12.2677,4.2397 15.37964,-1.30842 13.18799,-14.42121 30.33092,-27.03679 50.42717,-28.23561 33.04356,-3.11829 63.22057,13.68556 95.66194,16.79403 17.77721,2.96776 35.8663,-0.37121 52.625,-6.46875 7.95494,-0.10844 10.96094,-11.86043 3.625,-15.3125 -7.30377,-2.72407 -14.72352,3.01177 -21.83652,4.08722 -24.18328,6.90193 -49.44573,-0.98911 -73.02479,-7.07149 -16.39628,-4.90242 -33.60728,-8.71914 -50.91994,-8.32823 z"
       id="path6882"
       inkscape:connector-curvature="0" />
    <path
       sodipodi:nodetypes="czcczczcsczccsccczczczcczc"
       inkscape:connector-curvature="0"
       inkscape:original-d="m 452.16165,409.88937 c 0,0 16.12451,-39.76255 33.38051,-53.42659 17.256,-13.66404 60.25589,-23.91321 60.25589,-23.91321 l -45.04476,31.42145 c 0,0 30.63936,-7.90423 46.86922,-9.24721 16.22987,-1.34299 49.91729,1.48183 49.91729,1.48183 0,0 -29.19564,3.78075 -39.01833,7.30584 -9.8227,3.5251 -20.06989,11.06912 -20.06989,11.06912 12.78255,2.67794 26.10026,-2.21575 37.22173,-2.30627 14.71466,-0.11977 26.75745,3.77088 40.16504,1.47267 0,0 -26.70326,4.92895 -36.15943,9.80055 -9.45617,4.8716 -20.38413,16.71274 -20.38413,16.71274 l 17.50609,3.02731 c 0,0 -11.66911,2.35594 -22.94452,5.28632 -10.66229,2.77103 -20.97252,6.05573 -20.7306,8.3477 l 26.57007,-3.53502 32.06611,1.76812 c 0,0 -13.03282,6.21986 -19.28495,8.20352 -6.25213,1.98366 -17.98542,3.87608 -17.98542,3.87608 0,0 11.00799,4.53098 15.95291,8.22411 4.94491,3.69313 15.93369,5.96921 15.93369,5.96921 0,0 -8.07084,-2.33531 -22.14162,0.24227 -14.07078,2.57758 -29.14146,10.9755 -29.14146,10.9755 1.26914,8.36756 27.96216,3.45663 21.4753,10.8294 0,0 -43.6229,-4.86777 -61.83798,-14.15711 -18.21508,-9.28934 -42.57076,-39.42833 -42.57076,-39.42833 z"
       inkscape:path-effect="#path-effect3889"
       id="path3869"
       d="m 452.16165,409.88937 c 5.19552,-20.70301 17.05186,-39.67947 33.38051,-53.42659 16.81988,-14.16069 38.30301,-22.6865 60.25589,-23.91321 l -45.04476,31.42145 c 15.22205,-4.78446 30.97065,-7.89163 46.86922,-9.24721 16.62269,-1.41732 33.40794,-0.91904 49.91729,1.48183 -13.321,-0.23212 -26.68372,2.26993 -39.01833,7.30584 -7.08919,2.89434 -13.83964,6.6174 -20.06989,11.06912 12.36149,-1.35654 24.78733,-2.12645 37.22173,-2.30627 13.40178,-0.19381 26.81344,0.29793 40.16504,1.47267 -12.61556,0.20674 -25.16613,3.60841 -36.15943,9.80055 -7.69429,4.33393 -14.62608,10.01723 -20.38413,16.71274 l 17.50609,3.02731 c -7.77313,1.14473 -15.45413,2.9144 -22.94452,5.28632 -7.1087,2.25105 -14.04562,5.04438 -20.7306,8.3477 l 26.57007,-3.53502 32.06611,1.76812 c -6.12976,3.37545 -12.60196,6.12863 -19.28495,8.20352 -5.86469,1.82083 -11.89134,3.11965 -17.98542,3.87608 5.14576,3.05892 10.47631,5.80695 15.95291,8.22411 5.19162,2.29138 10.51444,4.28546 15.93369,5.96921 -7.34055,-0.98886 -14.82447,-0.90697 -22.14162,0.24227 -10.32598,1.62181 -20.31114,5.38251 -29.14146,10.9755 l 21.4753,10.8294 c -21.38624,1.02434 -43.02758,-3.93021 -61.83798,-14.15711 -17.16954,-9.33479 -31.94931,-23.02357 -42.57076,-39.42833"
       style="fill:#000000;fill-opacity:1;stroke:none" />
    <path
       inkscape:connector-curvature="0"
       id="path3871"
       d="m 258.47278,538.76274 c 0,60.53126 -49.07028,109.60154 -109.60155,109.60154 -60.531259,0 -109.601539,-49.07028 -109.601539,-109.60154 0,-60.53127 49.07028,-109.60155 109.601539,-109.60155 60.53127,0 109.60155,49.07028 109.60155,109.60155 z"
       style="fill:#000000;fill-opacity:1;fill-rule:nonzero;stroke:#000000;stroke-width:3.75;stroke-miterlimit:4;stroke-opacity:1;stroke-dashoffset:0" />
    <path
       sodipodi:type="arc"
       style="fill:#ffffff;fill-opacity:1;stroke:#000000;stroke-width:3.75;stroke-miterlimit:4;stroke-opacity:1;stroke-dasharray:none;stroke-dashoffset:0"
       id="path3873"
       sodipodi:cx="229.80971"
       sodipodi:cy="410.91531"
       sodipodi:rx="25.75889"
       sodipodi:ry="38.385796"
       d="m 255.5686,410.91531 a 25.75889,38.385796 0 1 1 -51.51778,0 25.75889,38.385796 0 1 1 51.51778,0 z"
       transform="translate(-131.3514,90.337631)" />
    <path
       style="fill:#000000;fill-opacity:1;fill-rule:nonzero;stroke:#000000;stroke-width:2.58745646;stroke-miterlimit:4;stroke-opacity:1;stroke-dashoffset:0"
       d="m 112.97819,496.60748 c 5.36978,9.06058 2.27076,20.8916 -6.92188,26.42532 -9.19265,5.53372 -20.99784,2.67465 -26.36763,-6.38593 -5.3698,-9.06057 -2.27077,-20.89158 6.92188,-26.42531 4.5462,-2.73669 9.9808,-3.52146 15.04143,-2.17203 0,0 -1.44451,1.72658 -4.84251,7.35467 -5.4033,8.94946 -2.9987,12.77886 -2.38189,11.69944 0,0 4.11377,-4.0084 9.65804,-7.75389 5.60395,-3.78579 8.89256,-2.74227 8.89256,-2.74227 z"
       id="path3875"
       inkscape:connector-curvature="0"
       sodipodi:nodetypes="cssscscsc" />
    <path
       transform="translate(-74.4514,92.823551)"
       d="m 255.5686,410.91531 a 25.75889,38.385796 0 1 1 -51.51778,0 25.75889,38.385796 0 1 1 51.51778,0 z"
       sodipodi:ry="38.385796"
       sodipodi:rx="25.75889"
       sodipodi:cy="410.91531"
       sodipodi:cx="229.80971"
       id="path3877"
       style="fill:#ffffff;fill-opacity:1;stroke:#000000;stroke-width:3.75;stroke-miterlimit:4;stroke-opacity:1;stroke-dasharray:none;stroke-dashoffset:0"
       sodipodi:type="arc" />
    <path
       sodipodi:nodetypes="cssscscsc"
       inkscape:connector-curvature="0"
       id="path3879"
       d="m 170.98304,499.0934 c 5.36978,9.06058 2.27076,20.8916 -6.92188,26.42532 -9.19265,5.53372 -20.99784,2.67465 -26.36763,-6.38593 -5.3698,-9.06057 -2.27077,-20.89158 6.92188,-26.42531 4.5462,-2.73669 9.9808,-3.52146 15.04143,-2.17203 0,0 -1.44451,1.72658 -4.84251,7.35467 -5.4033,8.94946 -2.9987,12.77886 -2.38189,11.69944 0,0 4.11377,-4.0084 9.65804,-7.75389 5.60395,-3.78579 8.89256,-2.74227 8.89256,-2.74227 z"
       style="fill:#000000;fill-opacity:1;fill-rule:nonzero;stroke:#000000;stroke-width:2.58745646;stroke-miterlimit:4;stroke-opacity:1;stroke-dashoffset:0" />
    <path
       id="path3881"
       sodipodi:nodetypes="cssssc"
       inkscape:connector-curvature="0"
       d="m 164.09024,439.00124 31.07426,-36.71475 c 4.34536,-5.13411 12.28616,-5.17188 17.05966,-0.49437 l 67.20603,65.85464 c 4.77352,4.67753 4.73394,12.02403 0.38856,17.15817 l -31.07426,36.71477"
       style="fill:#000000;fill-opacity:1;stroke:none;stroke-width:3.75399995;marker-start:none" />
    <path
       sodipodi:nodetypes="scczcccccccccccccs"
       inkscape:connector-curvature="0"
       id="path3883"
       d="m 203.54145,396.59884 c -3.58294,0.0957 -7.12631,1.54872 -9.75,4.40625 l -26.125,28.4375 c 0,0 -0.009,-0.46125 -1.25,1.375 -1.24097,1.83625 -4.98398,10.29648 -4.98398,10.29648 l 9.01523,-9.14023 26.09375,-28.40625 c 3.85077,-4.19397 10.27508,-4.32184 14.375,-0.40625 l 67.7554,65.29672 c 4.09993,3.91562 4.20623,10.29055 0.3125,14.53125 l -26.09375,28.4375 -7.35795,8.00413 8.85795,-4.09788 1.25,-1.375 26.125,-28.4375 c 5.20453,-5.6683 5.06637,-14.46511 -0.5,-19.78125 l -67.7554,-65.29672 c -2.78319,-2.65806 -6.38581,-3.93946 -9.96875,-3.84375 z"
       style="font-size:medium;font-style:normal;font-variant:normal;font-weight:normal;font-stretch:normal;text-indent:0;text-align:start;text-decoration:none;line-height:normal;letter-spacing:normal;word-spacing:normal;text-transform:none;direction:ltr;block-progression:tb;writing-mode:lr-tb;text-anchor:start;baseline-shift:baseline;color:#000000;fill:#000000;fill-opacity:1;fill-rule:nonzero;stroke:none;stroke-width:3.75399995;marker:none;visibility:visible;display:inline;overflow:visible;enable-background:accumulate;font-family:Sans;-inkscape-font-specification:Sans" />
    <path
       inkscape:connector-curvature="0"
       id="path3887"
       d="m 313.55073,390.39247 c -23.83116,-0.26205 -46.46423,10.99181 -62.71875,28.03125 -4.30433,4.82508 -13.53246,10.17148 -9.21875,17.8125 3.50093,6.12842 12.2677,4.2397 15.37964,-1.30842 13.18799,-14.42121 30.33092,-27.03679 50.42717,-28.23561 33.04356,-3.11829 63.22057,13.68556 95.66194,16.79403 17.77721,2.96776 35.8663,-0.37121 52.625,-6.46875 7.95494,-0.10844 10.96094,-11.86043 3.625,-15.3125 -7.30377,-2.72407 -14.72352,3.01177 -21.83652,4.08722 -24.18328,6.90193 -49.44573,-0.98911 -73.02479,-7.07149 -16.39628,-4.90242 -33.60728,-8.71914 -50.91994,-8.32823 z"
       style="font-size:medium;font-style:normal;font-variant:normal;font-weight:normal;font-stretch:normal;text-indent:0;text-align:start;text-decoration:none;line-height:normal;letter-spacing:normal;word-spacing:normal;text-transform:none;direction:ltr;block-progression:tb;writing-mode:lr-tb;text-anchor:start;baseline-shift:baseline;color:#000000;fill:#000000;fill-opacity:1;stroke:none;stroke-width:2.29999995;marker:none;visibility:visible;display:inline;overflow:visible;enable-background:accumulate;font-family:Sans;-inkscape-font-specification:Sans" />
    <path
       style="fill:#000000;fill-opacity:1;stroke:none"
       d="m 253.64979,791.91274 c -8.01234,-7.76834 -11.69148,-19.24989 -11.74574,-30.40971 -0.0543,-11.15983 3.19588,-22.09032 7.38021,-32.43615 8.14651,-20.14241 19.97295,-38.78984 34.72047,-54.7458 l -17.9997,51.88785 c 9.50928,-12.8131 20.42989,-24.57802 32.5007,-35.01342 12.62059,-10.9107 26.49791,-20.36655 41.26945,-28.12053 -10.91729,7.63647 -20.26238,17.51026 -27.2871,28.83087 -4.03739,6.50641 -7.31385,13.48455 -9.74133,20.74687 9.20761,-8.35861 18.81188,-16.28025 28.76967,-23.72935 10.73249,-8.02863 21.87566,-15.50822 33.37138,-22.39978 -10.0886,7.57729 -18.248,17.70213 -23.50804,29.17066 -3.68154,8.02691 -5.95339,16.69803 -6.68077,25.49894 l 15.94619,-7.83245 c -5.61857,5.49213 -10.79552,11.43594 -15.46446,17.75519 -4.43102,5.99724 -8.4045,12.33246 -11.87452,18.93245 l 19.42733,-18.46737 26.9903,-17.40361 c -2.97831,6.33224 -6.59927,12.36199 -10.78922,17.96662 -3.67691,4.91836 -7.79152,9.50939 -12.27928,13.70105 5.96128,-0.54681 11.8895,-1.45377 17.74159,-2.71429 5.54756,-1.19493 11.02668,-2.70753 16.40157,-4.52792 -6.52167,3.5113 -12.53046,7.97338 -17.77735,13.20134 -7.40443,7.37771 -13.27671,16.28627 -17.13813,25.99944 l 23.74124,-3.84944 c -18.21128,10.87424 -37.90394,19.26389 -58.36216,24.86399 -9.77514,2.67579 -19.8636,4.72893 -29.98198,4.15296 -10.11838,-0.57597 -20.35403,-4.00371 -27.63032,-11.05841"
       id="path3891"
       inkscape:path-effect="#path-effect3909"
       inkscape:original-d="m 253.64979,791.91274 c -13.90204,-14.61423 -10.30534,-41.65165 -4.36553,-62.84586 5.93982,-21.1942 34.72047,-54.7458 34.72047,-54.7458 l -17.9997,51.88785 c 0,0 20.15437,-24.39363 32.5007,-35.01342 12.34633,-10.61981 41.26945,-28.12053 41.26945,-28.12053 0,0 -21.40793,20.20842 -27.2871,28.83087 -5.87919,8.62248 -9.74133,20.74687 -9.74133,20.74687 11.91811,-5.34075 19.822,-17.1237 28.76967,-23.72935 11.83852,-8.73985 23.87024,-12.66461 33.37138,-22.39978 0,0 -18.71639,19.67372 -23.50804,29.17066 -4.79164,9.49693 -6.68077,25.49894 -6.68077,25.49894 l 15.94619,-7.83245 c 0,0 -8.06025,8.76076 -15.46446,17.75519 -7.00159,8.50534 -13.41654,17.2196 -11.87452,18.93245 l 19.42733,-18.46737 26.9903,-17.40361 c 0,0 -6.89438,12.68891 -10.78922,17.96662 -3.89484,5.27773 -12.27928,13.70105 -12.27928,13.70105 0,0 11.57034,-2.79872 17.74159,-2.71429 6.17124,0.0844 16.40157,-4.52792 16.40157,-4.52792 0,0 -7.90357,2.85053 -17.77735,13.20134 -9.87379,10.35081 -17.13813,25.99944 -17.13813,25.99944 5.94198,6.02658 24.66066,-13.62654 23.74124,-3.84944 0,0 -38.16406,21.68309 -58.36216,24.86399 -20.19809,3.1809 -43.71027,7.70877 -57.6123,-6.90545 z"
       inkscape:connector-curvature="0"
       sodipodi:nodetypes="zzcczczcsczccsccczczczcczz" />
    <path
       style="fill:#000000;fill-opacity:1;fill-rule:nonzero;stroke:#000000;stroke-width:3.75;stroke-miterlimit:4;stroke-opacity:1;stroke-dashoffset:0"
       d="m 258.85191,902.54138 c 0,60.53126 -49.07028,109.60152 -109.60155,109.60152 -60.531263,0 -109.601543,-49.07026 -109.601543,-109.60152 0,-60.53127 49.07028,-109.60155 109.601543,-109.60155 60.53127,0 109.60155,49.07028 109.60155,109.60155 z"
       id="path3893"
       inkscape:connector-curvature="0" />
    <path
       transform="translate(-130.97227,454.11627)"
       d="m 255.5686,410.91531 a 25.75889,38.385796 0 1 1 -51.51778,0 25.75889,38.385796 0 1 1 51.51778,0 z"
       sodipodi:ry="38.385796"
       sodipodi:rx="25.75889"
       sodipodi:cy="410.91531"
       sodipodi:cx="229.80971"
       id="path3895"
       style="fill:#ffffff;fill-opacity:1;stroke:#000000;stroke-width:3.75;stroke-miterlimit:4;stroke-opacity:1;stroke-dasharray:none;stroke-dashoffset:0"
       sodipodi:type="arc" />
    <path
       sodipodi:nodetypes="cssscscsc"
       inkscape:connector-curvature="0"
       id="path3897"
       d="m 113.35732,860.38612 c 5.36978,9.06058 2.27076,20.8916 -6.92188,26.42532 -9.19265,5.53372 -20.997844,2.67465 -26.367634,-6.38593 -5.3698,-9.06057 -2.27077,-20.89158 6.92188,-26.42531 4.5462,-2.73669 9.980804,-3.52146 15.041434,-2.17203 0,0 -1.44451,1.72658 -4.84251,7.35467 -5.403304,8.94946 -2.9987,12.77886 -2.38189,11.69944 0,0 4.11377,-4.0084 9.65804,-7.75389 5.60395,-3.78579 8.89256,-2.74227 8.89256,-2.74227 z"
       style="fill:#000000;fill-opacity:1;fill-rule:nonzero;stroke:#000000;stroke-width:2.58745646;stroke-miterlimit:4;stroke-opacity:1;stroke-dashoffset:0" />
    <path
       sodipodi:type="arc"
       style="fill:#ffffff;fill-opacity:1;stroke:#000000;stroke-width:3.75;stroke-miterlimit:4;stroke-opacity:1;stroke-dasharray:none;stroke-dashoffset:0"
       id="path3899"
       sodipodi:cx="229.80971"
       sodipodi:cy="410.91531"
       sodipodi:rx="25.75889"
       sodipodi:ry="38.385796"
       d="m 255.5686,410.91531 a 25.75889,38.385796 0 1 1 -51.51778,0 25.75889,38.385796 0 1 1 51.51778,0 z"
       transform="translate(-74.072274,456.60219)" />
    <path
       style="fill:#000000;fill-opacity:1;fill-rule:nonzero;stroke:#000000;stroke-width:2.58745646;stroke-miterlimit:4;stroke-opacity:1;stroke-dashoffset:0"
       d="m 171.36217,862.87204 c 5.36978,9.06058 2.27076,20.8916 -6.92188,26.42532 -9.19265,5.53372 -20.99784,2.67465 -26.36763,-6.38593 -5.3698,-9.06057 -2.27077,-20.89158 6.92188,-26.42531 4.5462,-2.73669 9.9808,-3.52146 15.04143,-2.17203 0,0 -1.44451,1.72658 -4.84251,7.35467 -5.4033,8.94946 -2.9987,12.77886 -2.38189,11.69944 0,0 4.11377,-4.0084 9.65804,-7.75389 5.60395,-3.78579 8.89256,-2.74227 8.89256,-2.74227 z"
       id="path3901"
       inkscape:connector-curvature="0"
       sodipodi:nodetypes="cssscscsc" />
    <path
       style="fill:#000000;fill-opacity:1;stroke:none;stroke-width:3.75399995;marker-start:none"
       d="m 164.46937,802.77988 31.07426,-36.71475 c 4.34536,-5.13411 12.28616,-5.17188 17.05966,-0.49437 l 67.20603,65.85464 c 4.77352,4.67753 4.73394,12.02403 0.38856,17.15817 l -31.07426,36.71477"
       inkscape:connector-curvature="0"
       sodipodi:nodetypes="cssssc"
       id="path3903" />
    <path
       style="font-size:medium;font-style:normal;font-variant:normal;font-weight:normal;font-stretch:normal;text-indent:0;text-align:start;text-decoration:none;line-height:normal;letter-spacing:normal;word-spacing:normal;text-transform:none;direction:ltr;block-progression:tb;writing-mode:lr-tb;text-anchor:start;baseline-shift:baseline;color:#000000;fill:#000000;fill-opacity:1;fill-rule:nonzero;stroke:none;stroke-width:3.75399995;marker:none;visibility:visible;display:inline;overflow:visible;enable-background:accumulate;font-family:Sans;-inkscape-font-specification:Sans"
       d="m 203.92058,760.37748 c -3.58294,0.0957 -7.12631,1.54872 -9.75,4.40625 l -26.125,28.4375 c 0,0 -0.009,-0.46125 -1.25,1.375 -1.24097,1.83625 -4.98398,10.29648 -4.98398,10.29648 l 9.01523,-9.14023 26.09375,-28.40625 c 3.85077,-4.19397 10.27508,-4.32184 14.375,-0.40625 l 67.7554,65.29672 c 4.09993,3.91562 4.20623,10.29055 0.3125,14.53125 l -26.09375,28.4375 -7.35795,8.00413 8.85795,-4.09788 1.25,-1.375 26.125,-28.4375 c 5.20453,-5.6683 5.06637,-14.46511 -0.5,-19.78125 l -67.7554,-65.29672 c -2.78319,-2.65806 -6.38581,-3.93946 -9.96875,-3.84375 z"
       id="path3905"
       inkscape:connector-curvature="0"
       sodipodi:nodetypes="scczcccccccccccccs" />
    <path
       inkscape:connector-curvature="0"
       id="path3913"
       d="m 680.72691,908.79138 c 0,60.53126 -49.07028,109.60152 -109.60155,109.60152 -60.53126,0 -109.60154,-49.07026 -109.60154,-109.60152 0,-60.53127 49.07028,-109.60155 109.60154,-109.60155 60.53127,0 109.60155,49.07028 109.60155,109.60155 z"
       style="fill:#000000;fill-opacity:1;fill-rule:nonzero;stroke:#000000;stroke-width:3.75;stroke-miterlimit:4;stroke-opacity:1;stroke-dashoffset:0" />
    <path
       sodipodi:type="arc"
       style="fill:#ffffff;fill-opacity:1;stroke:#000000;stroke-width:3.75;stroke-miterlimit:4;stroke-opacity:1;stroke-dasharray:none;stroke-dashoffset:0"
       id="path3915"
       sodipodi:cx="229.80971"
       sodipodi:cy="410.91531"
       sodipodi:rx="25.75889"
       sodipodi:ry="38.385796"
       d="m 255.5686,410.91531 a 25.75889,38.385796 0 1 1 -51.51778,0 25.75889,38.385796 0 1 1 51.51778,0 z"
       transform="translate(290.90273,460.36627)" />
    <path
       style="fill:#000000;fill-opacity:1;fill-rule:nonzero;stroke:#000000;stroke-width:2.58745646;stroke-miterlimit:4;stroke-opacity:1;stroke-dashoffset:0"
       d="m 535.23232,866.63612 c 5.36978,9.06058 2.27076,20.8916 -6.92188,26.42532 -9.19265,5.53372 -20.99784,2.67465 -26.36763,-6.38593 -5.3698,-9.06057 -2.27077,-20.89158 6.92188,-26.42531 4.5462,-2.73669 9.9808,-3.52146 15.04143,-2.17203 0,0 -1.44451,1.72658 -4.84251,7.35467 -5.4033,8.94946 -2.9987,12.77886 -2.38189,11.69944 0,0 4.11377,-4.0084 9.65804,-7.75389 5.60395,-3.78579 8.89256,-2.74227 8.89256,-2.74227 z"
       id="path3917"
       inkscape:connector-curvature="0"
       sodipodi:nodetypes="cssscscsc" />
    <path
       transform="translate(347.80273,462.85219)"
       d="m 255.5686,410.91531 a 25.75889,38.385796 0 1 1 -51.51778,0 25.75889,38.385796 0 1 1 51.51778,0 z"
       sodipodi:ry="38.385796"
       sodipodi:rx="25.75889"
       sodipodi:cy="410.91531"
       sodipodi:cx="229.80971"
       id="path3919"
       style="fill:#ffffff;fill-opacity:1;stroke:#000000;stroke-width:3.75;stroke-miterlimit:4;stroke-opacity:1;stroke-dasharray:none;stroke-dashoffset:0"
       sodipodi:type="arc" />
    <path
       sodipodi:nodetypes="cssscscsc"
       inkscape:connector-curvature="0"
       id="path3921"
       d="m 593.23717,869.12204 c 5.36978,9.06058 2.27076,20.8916 -6.92188,26.42532 -9.19265,5.53372 -20.99784,2.67465 -26.36763,-6.38593 -5.3698,-9.06057 -2.27077,-20.89158 6.92188,-26.42531 4.5462,-2.73669 9.9808,-3.52146 15.04143,-2.17203 0,0 -1.44451,1.72658 -4.84251,7.35467 -5.4033,8.94946 -2.9987,12.77886 -2.38189,11.69944 0,0 4.11377,-4.0084 9.65804,-7.75389 5.60395,-3.78579 8.89256,-2.74227 8.89256,-2.74227 z"
       style="fill:#000000;fill-opacity:1;fill-rule:nonzero;stroke:#000000;stroke-width:2.58745646;stroke-miterlimit:4;stroke-opacity:1;stroke-dashoffset:0" />
    <path
       id="path3923"
       sodipodi:nodetypes="cssssc"
       inkscape:connector-curvature="0"
       d="m 586.34437,809.02988 31.07426,-36.71475 c 4.34536,-5.13411 12.28616,-5.17188 17.05966,-0.49437 l 67.20603,65.85464 c 4.77352,4.67753 4.73394,12.02403 0.38856,17.15817 l -31.07426,36.71477"
       style="fill:#000000;fill-opacity:1;stroke:none;stroke-width:3.75399995;marker-start:none" />
    <path
       sodipodi:nodetypes="scczcccccccccccccs"
       inkscape:connector-curvature="0"
       id="path3925"
       d="m 625.79558,766.62748 c -3.58294,0.0957 -7.12631,1.54872 -9.75,4.40625 l -26.125,28.4375 c 0,0 -0.009,-0.46125 -1.25,1.375 -1.24097,1.83625 -4.98398,10.29648 -4.98398,10.29648 l 9.01523,-9.14023 26.09375,-28.40625 c 3.85077,-4.19397 10.27508,-4.32184 14.375,-0.40625 l 67.7554,65.29672 c 4.09993,3.91562 4.20623,10.29055 0.3125,14.53125 l -26.09375,28.4375 -7.35795,8.00413 8.85795,-4.09788 1.25,-1.375 26.125,-28.4375 c 5.20453,-5.6683 5.06637,-14.46511 -0.5,-19.78125 l -67.7554,-65.29672 c -2.78319,-2.65806 -6.38581,-3.93946 -9.96875,-3.84375 z"
       style="font-size:medium;font-style:normal;font-variant:normal;font-weight:normal;font-stretch:normal;text-indent:0;text-align:start;text-decoration:none;line-height:normal;letter-spacing:normal;word-spacing:normal;text-transform:none;direction:ltr;block-progression:tb;writing-mode:lr-tb;text-anchor:start;baseline-shift:baseline;color:#000000;fill:#000000;fill-opacity:1;fill-rule:nonzero;stroke:none;stroke-width:3.75399995;marker:none;visibility:visible;display:inline;overflow:visible;enable-background:accumulate;font-family:Sans;-inkscape-font-specification:Sans" />
  </g>
</svg>
