<?xml version="1.0" encoding="UTF-8" standalone="no"?>
<!-- Created with Inkscape (http://www.inkscape.org/) -->

<svg
   xmlns:osb="http://www.openswatchbook.org/uri/2009/osb"
   xmlns:dc="http://purl.org/dc/elements/1.1/"
   xmlns:cc="http://creativecommons.org/ns#"
   xmlns:rdf="http://www.w3.org/1999/02/22-rdf-syntax-ns#"
   xmlns:svg="http://www.w3.org/2000/svg"
   xmlns="http://www.w3.org/2000/svg"
   xmlns:sodipodi="http://sodipodi.sourceforge.net/DTD/sodipodi-0.dtd"
   xmlns:inkscape="http://www.inkscape.org/namespaces/inkscape"
   width="576.5625"
   height="315.8125"
   id="svg2"
   version="1.1"
   inkscape:version="0.48.2 r9819"
   sodipodi:docname="bomb.svg">
  <defs
     id="defs4">
    <inkscape:path-effect
       is_visible="true"
       id="path-effect3927"
       effect="spiro" />
    <inkscape:path-effect
       effect="spiro"
       id="path-effect3909"
       is_visible="true" />
    <inkscape:path-effect
       is_visible="true"
       id="path-effect3889"
       effect="spiro" />
    <inkscape:path-effect
       is_visible="true"
       id="path-effect6917"
       effect="spiro" />
    <inkscape:path-effect
       effect="spiro"
       id="path-effect6913"
       is_visible="true" />
    <inkscape:path-effect
       effect="spiro"
       id="path-effect6875"
       is_visible="true" />
    <marker
       inkscape:stockid="Arrow1Mend"
       orient="auto"
       refY="0"
       refX="0"
       id="Arrow1Mend"
       style="overflow:visible">
      <path
         id="path3955"
         d="M 0,0 5,-5 -12.5,0 5,5 0,0 z"
         style="fill-rule:evenodd;stroke:#000000;stroke-width:1pt;marker-start:none"
         transform="matrix(-0.4,0,0,-0.4,-4,0)"
         inkscape:connector-curvature="0" />
    </marker>
    <marker
       style="overflow:visible"
       inkscape:stockid="InfiniteLineStart"
       id="InfiniteLineStart"
       refX="0"
       refY="0"
       orient="auto">
      <g
         id="g4191"
         transform="translate(-13,0)">
        <circle
           d="M 3.8,0 C 3.8,0.44182781 3.4418278,0.80000001 3,0.80000001 2.5581722,0.80000001 2.2,0.44182781 2.2,0 c 0,-0.44182781 0.3581722,-0.80000001 0.8,-0.80000001 0.4418278,0 0.8,0.3581722 0.8,0.80000001 z"
           id="circle4193"
           r="0.80000001"
           cy="0"
           cx="3"
           sodipodi:cx="3"
           sodipodi:cy="0"
           sodipodi:rx="0.80000001"
           sodipodi:ry="0.80000001" />
        <circle
           d="M 7.3,0 C 7.3,0.44182781 6.9418278,0.80000001 6.5,0.80000001 6.0581722,0.80000001 5.7,0.44182781 5.7,0 c 0,-0.44182781 0.3581722,-0.80000001 0.8,-0.80000001 0.4418278,0 0.8,0.3581722 0.8,0.80000001 z"
           id="circle4195"
           r="0.80000001"
           cy="0"
           cx="6.5"
           sodipodi:cx="6.5"
           sodipodi:cy="0"
           sodipodi:rx="0.80000001"
           sodipodi:ry="0.80000001" />
        <circle
           d="M 10.8,0 C 10.8,0.44182781 10.441828,0.80000001 10,0.80000001 9.5581722,0.80000001 9.2,0.44182781 9.2,0 c 0,-0.44182781 0.3581722,-0.80000001 0.8,-0.80000001 0.441828,0 0.8,0.3581722 0.8,0.80000001 z"
           id="circle4197"
           r="0.80000001"
           cy="0"
           cx="10"
           sodipodi:cx="10"
           sodipodi:cy="0"
           sodipodi:rx="0.80000001"
           sodipodi:ry="0.80000001" />
      </g>
    </marker>
    <marker
       inkscape:stockid="RazorWire"
       id="RazorWire"
       refX="0"
       refY="0"
       orient="auto">
       style=&quot;overflow:visible&quot;&gt;
      <path
   id="path4179"
   transform="scale(0.8,0.8)"
   style="fill:#808080;fill-opacity:1;fill-rule:evenodd;stroke:#000000;stroke-width:0.1pt"
   d="m 0.02272727,-0.74009011 0,1.4375 -7.78124997,2.31250001 18.4374997,0 -7.1874997,-2.31250001 0,-1.4375 7.2499997,-2.15624999 -18.4687497,0 7.74999997,2.15624999 z"
   inkscape:connector-curvature="0" />
</marker>
    <marker
       inkscape:stockid="Tail"
       orient="auto"
       refY="0"
       refX="0"
       id="Tail"
       style="overflow:visible">
      <g
         id="g3982"
         transform="scale(-1.2,-1.2)">
        <path
           id="path3984"
           d="M -3.8048674,-3.9585227 0.54352094,0"
           style="fill:none;stroke:#000000;stroke-width:0.80000001;stroke-linecap:round;marker-start:none;marker-end:none"
           inkscape:connector-curvature="0" />
        <path
           id="path3986"
           d="M -1.2866832,-3.9585227 3.0617053,0"
           style="fill:none;stroke:#000000;stroke-width:0.80000001;stroke-linecap:round;marker-start:none;marker-end:none"
           inkscape:connector-curvature="0" />
        <path
           id="path3988"
           d="M 1.3053582,-3.9585227 5.6537466,0"
           style="fill:none;stroke:#000000;stroke-width:0.80000001;stroke-linecap:round;marker-start:none;marker-end:none"
           inkscape:connector-curvature="0" />
        <path
           id="path3990"
           d="M -3.8048674,4.1775838 0.54352094,0.21974226"
           style="fill:none;stroke:#000000;stroke-width:0.80000001;stroke-linecap:round;marker-start:none;marker-end:none"
           inkscape:connector-curvature="0" />
        <path
           id="path3992"
           d="M -1.2866832,4.1775838 3.0617053,0.21974226"
           style="fill:none;stroke:#000000;stroke-width:0.80000001;stroke-linecap:round;marker-start:none;marker-end:none"
           inkscape:connector-curvature="0" />
        <path
           id="path3994"
           d="M 1.3053582,4.1775838 5.6537466,0.21974226"
           style="fill:none;stroke:#000000;stroke-width:0.80000001;stroke-linecap:round;marker-start:none;marker-end:none"
           inkscape:connector-curvature="0" />
      </g>
    </marker>
    <marker
       inkscape:stockid="Scissors"
       orient="auto"
       refY="0"
       refX="0"
       id="Scissors"
       style="overflow:visible">
      <path
         id="schere"
         style="marker-start:none"
         d="M 9.0898857,-3.6061018 C 8.1198849,-4.7769976 6.3697607,-4.7358294 5.0623558,-4.2327734 l -8.2124046,3.0779029 c -2.3882933,-1.3067135 -4.7482873,-0.9325372 -4.7482873,-1.5687873 0,-0.4973164 0.4566662,-0.3883222 0.3883068,-1.6831941 -0.065635,-1.2432767 -1.3635771,-2.1630796 -2.5903987,-2.0816435 -1.227271,-0.00735 -2.499439,0.9331613 -2.510341,2.2300611 -0.09143,1.3063864 1.007209,2.5196896 2.306764,2.6052316 1.5223406,0.2266616 4.218258,-0.6955566 5.482945,1.57086006 -0.9422847,1.73825774 -2.6140244,1.74307674 -4.1255107,1.65607034 -1.2548743,-0.072235 -2.7620933,0.2873979 -3.3606483,1.5208605 -0.578367,1.1820862 -0.0112,2.8646022 1.316749,3.226412 1.3401912,0.4918277 3.1806689,-0.129711 3.4993722,-1.6707242 0.2456585,-1.187823 -0.5953659,-1.7459574 -0.2725074,-2.1771537 0.2436135,-0.32536 1.7907806,-0.1368452 4.5471053,-1.3748244 L 5.6763468,4.2330688 C 6.8000164,4.5467672 8.1730685,4.5362646 9.1684433,3.4313614 L -0.05164093,-0.05372222 9.0898857,-3.6061018 z m -18.3078016,-1.900504 c 1.294559,0.7227998 1.1888392,2.6835702 -0.1564272,3.0632889 -1.2165179,0.423661 -2.7710269,-0.7589694 -2.3831779,-2.0774648 0.227148,-1.0818519 1.653387,-1.480632 2.5396051,-0.9858241 z m 0.056264,8.0173649 c 1.3508301,0.4988648 1.1214429,2.7844356 -0.2522207,3.091609 -0.9110594,0.3163391 -2.2135494,-0.1387976 -2.3056964,-1.2121394 -0.177609,-1.305055 1.356085,-2.4841482 2.5579171,-1.8794696 z"
         inkscape:connector-curvature="0" />
    </marker>
    <linearGradient
       id="linearGradient4821"
       osb:paint="solid">
      <stop
         style="stop-color:#000000;stop-opacity:1;"
         offset="0"
         id="stop4823" />
    </linearGradient>
    <inkscape:path-effect
       effect="envelope"
       id="path-effect4775"
       is_visible="true"
       yy="true"
       xx="true"
       bendpath1="m 248.57143,300.93362 c 80.39091,-0.63702 153.12545,-0.72984 214.28572,0"
       bendpath2="m 464.91956,300.93362 -2.06241,108.57142"
       bendpath3="m 248.57143,409.50504 214.28572,0"
       bendpath4="m 248.57143,300.93362 8.24963,100.3624"
       bendpath1-nodetypes="cc"
       bendpath2-nodetypes="cc"
       bendpath4-nodetypes="cc"
       bendpath3-nodetypes="cc" />
    <marker
       inkscape:stockid="Arrow1Mstart"
       orient="auto"
       refY="0"
       refX="0"
       id="Arrow1Mstart"
       style="overflow:visible">
      <path
         id="path3952"
         d="M 0,0 5,-5 -12.5,0 5,5 0,0 z"
         style="fill-rule:evenodd;stroke:#000000;stroke-width:1pt;marker-start:none"
         transform="matrix(0.4,0,0,0.4,4,0)"
         inkscape:connector-curvature="0" />
    </marker>
    <marker
       inkscape:stockid="Arrow1Lstart"
       orient="auto"
       refY="0"
       refX="0"
       id="Arrow1Lstart"
       style="overflow:visible">
      <path
         id="path3946"
         d="M 0,0 5,-5 -12.5,0 5,5 0,0 z"
         style="fill-rule:evenodd;stroke:#000000;stroke-width:1pt;marker-start:none"
         transform="matrix(0.8,0,0,0.8,10,0)"
         inkscape:connector-curvature="0" />
    </marker>
  </defs>
  <sodipodi:namedview
     id="base"
     pagecolor="#ffffff"
     bordercolor="#666666"
     borderopacity="1.0"
     inkscape:pageopacity="0.0"
     inkscape:pageshadow="2"
     inkscape:zoom="0.90509668"
     inkscape:cx="389.7484"
     inkscape:cy="-2.3927385"
     inkscape:document-units="px"
     inkscape:current-layer="layer1"
     showgrid="false"
     inkscape:window-width="1366"
     inkscape:window-height="722"
     inkscape:window-x="0"
     inkscape:window-y="23"
     inkscape:window-maximized="0"
     fit-margin-top="0"
     fit-margin-left="0"
     fit-margin-right="0"
     fit-margin-bottom="0" />
  <metadata
     id="metadata7">
    <rdf:RDF>
      <cc:Work
         rdf:about="">
        <dc:format>image/svg+xml</dc:format>
        <dc:type
           rdf:resource="http://purl.org/dc/dcmitype/StillImage" />
        <dc:title></dc:title>
      </cc:Work>
    </rdf:RDF>
  </metadata>
  <g
     inkscape:label="Layer 1"
     inkscape:groupmode="layer"
     id="layer1"
     transform="translate(-58.03125,-281.78125)">
    <path
       style="fill:#000000;fill-opacity:1;stroke:none"
       d="m 564.5625,281.78125 c 0,0 -43.02525,10.24221 -60.28125,23.90625 -12.12667,9.60242 -23.66315,32.03985 -29.46875,44.5625 -6.23732,-0.42411 -12.51049,3.83497 -18.5625,4.75 -24.18328,6.90193 -49.45219,-0.98012 -73.03125,-7.0625 -15.37151,-4.59602 -31.47141,-8.22858 -47.6875,-8.34375 -1.08107,-0.008 -2.13671,0.007 -3.21875,0.0312 -23.83116,-0.26205 -46.46423,10.99181 -62.71875,28.03125 -2.52728,2.83304 -6.75306,5.82357 -8.9375,9.375 L 232.25,349.65625 c -2.78319,-2.65806 -6.38581,-3.93946 -9.96875,-3.84375 -3.58294,0.0957 -7.12631,1.54872 -9.75,4.40625 l -26.125,28.40625 c -0.0566,-0.0407 -0.30696,0.0599 -1.09375,1.1875 -5.76127,-0.93638 -11.66261,-1.4375 -17.6875,-1.4375 -60.53126,0 -109.59375,49.06248 -109.59375,109.59375 0,60.53126 49.06249,109.625 109.59375,109.625 60.53127,0 109.59375,-49.09374 109.59375,-109.625 0,-8.5274 -1.00097,-16.81445 -2.84375,-24.78125 L 300.5,434.75 c 5.20453,-5.6683 5.06637,-14.46511 -0.5,-19.78125 l -28.0625,-27.0625 c 1.55986,-0.88618 2.92238,-2.16305 3.8125,-3.75 13.18799,-14.42121 30.31,-27.05118 50.40625,-28.25 33.04356,-3.11829 63.24613,13.70403 95.6875,16.8125 17.77721,2.96776 35.8663,-0.37121 52.625,-6.46875 0.80534,-0.011 1.5517,-0.14604 2.25,-0.375 8.2741,9.41947 23.93493,26.12081 36.75,32.65625 18.21508,9.28934 61.84375,14.15625 61.84375,14.15625 -19.29439,-9.71652 -20.19961,-6.35119 -21.46875,-14.71875 0,0 15.08547,-4.51617 29.15625,-7.09375 10.55309,-1.93318 17.72676,-1.09848 20.65625,-0.5625 -3.0175,-0.71462 -10.54045,-2.69113 -14.46875,-5.625 -4.94492,-3.69313 -15.9375,-8.25 -15.9375,-8.25 0,0 11.71662,-1.89134 17.96875,-3.875 C 597.47088,370.57884 610.5,364.375 610.5,364.375 l -32.0625,-1.78125 -26.5625,3.53125 c -0.24192,-2.29197 10.05646,-5.57272 20.71875,-8.34375 C 583.86916,354.85087 595.5625,352.5 595.5625,352.5 l -17.53125,-3.03125 c 0,0 10.95008,-11.8159 20.40625,-16.6875 9.45617,-4.8716 36.15625,-9.8125 36.15625,-9.8125 -13.40759,2.29821 -25.44159,-1.58852 -40.15625,-1.46875 -11.12147,0.0905 -24.46745,4.99044 -37.25,2.3125 0,0 10.27105,-7.56865 20.09375,-11.09375 9.82269,-3.52509 39,-7.28125 39,-7.28125 0,0 -33.67638,-2.84299 -49.90625,-1.5 -16.22986,1.34298 -46.875,9.25 -46.875,9.25 z m -447.34375,130.3125 c 14.22624,0 25.75,17.17511 25.75,38.375 0,21.19989 -11.52376,38.375 -25.75,38.375 -14.22624,0 -25.78125,-17.17511 -25.78125,-38.375 0,-21.19989 11.55501,-38.375 25.78125,-38.375 z m 56.875,2.46875 c 14.22624,0 25.78125,17.20636 25.78125,38.40625 0,21.19989 -11.55501,38.375 -25.78125,38.375 -14.22624,0 -25.75,-17.17511 -25.75,-38.375 0,-21.19989 11.52376,-38.40625 25.75,-38.40625 z M 116,437.625 c -3.22724,0.14099 -6.43987,1.07082 -9.28125,2.78125 -9.19265,5.53373 -12.27605,17.37693 -6.90625,26.4375 5.36979,9.06058 17.18235,11.90872 26.375,6.375 9.19264,-5.53372 12.27603,-17.34567 6.90625,-26.40625 0,0 -3.3023,-1.06704 -8.90625,2.71875 -5.54427,3.74549 -9.65625,7.78125 -9.65625,7.78125 -0.61681,1.07942 -2.99705,-2.76929 2.40625,-11.71875 3.398,-5.62809 4.84375,-7.34375 4.84375,-7.34375 -1.89774,-0.50604 -3.8449,-0.7096 -5.78125,-0.625 z m 56.625,1.5 c -3.22724,0.14099 -6.40863,1.10207 -9.25,2.8125 -9.19265,5.53373 -12.3073,17.34568 -6.9375,26.40625 5.36979,9.06058 17.18235,11.93997 26.375,6.40625 9.19264,-5.53372 12.27603,-17.37692 6.90625,-26.4375 0,0 -3.27105,-1.03579 -8.875,2.75 -5.54427,3.74549 -9.65625,7.75 -9.65625,7.75 -0.61681,1.07942 -3.0283,-2.76929 2.375,-11.71875 3.398,-5.62809 4.84375,-7.34375 4.84375,-7.34375 -1.89774,-0.50604 -3.8449,-0.7096 -5.78125,-0.625 z"
       id="path3869"
       inkscape:connector-curvature="0"
       sodipodi:nodetypes="cscccsccccscccsssscccccccccsccscscscccsccscscscsccsssssssssssssscscscssssscscscs" />
  </g>
</svg>
